<svg xmlns="http://www.w3.org/2000/svg" id="svg8" width="1527.707" height="543.597" version="1.1" viewBox="0 0 404.206 143.827"><g id="layer2" style="display:inline" transform="translate(126.473 -87.786)"><g id="g3743-3" style="display:inline" transform="translate(-161.417 61.103)scale(.26458)"><path id="path3715-6" d="M713 295.23c-8.4-9.4-12.61-23.31-12.61-41.75v-96.51c0-18.61 4.16-32.62 12.47-42.02q12.465-14.1 36.87-14.1c32.89 0 49.34 18.43 49.34 55.3v28.47h-40.12v-34.16c0-4.7-.68-8.22-2.03-10.57-1.36-2.35-3.75-3.52-7.18-3.52-6.15 0-9.22 4.7-9.22 14.1v108.98c0 9.58 3.07 14.37 9.22 14.37 3.07 0 5.37-1.13 6.91-3.39 1.53-2.26 2.3-5.83 2.3-10.71v-37.95h40.12v32.26c0 18.43-3.98 32.26-11.93 41.48q-11.925 13.83-37.41 13.83c-16.08-.01-28.32-4.71-36.73-14.11" class="st13" style="fill:#fff;fill-opacity:.9813084;stroke:none;stroke-opacity:1"/><path id="path3717-7" d="M825.24 295.78c-7.86-9.04-11.79-22.14-11.79-39.31v-62.89c0-17.17 3.93-30.23 11.79-39.17 7.86-8.95 19.47-13.42 34.84-13.42 15.36 0 26.97 4.47 34.84 13.42 7.86 8.95 11.79 22.01 11.79 39.17v62.89c0 17.35-3.93 30.5-11.79 39.44s-19.48 13.42-34.84 13.42c-15.37 0-26.98-4.51-34.84-13.55m42.96-31.18v-79.16c0-8.49-2.71-12.74-8.13-12.74s-8.13 4.25-8.13 12.74v79.16c0 8.68 2.71 13.01 8.13 13.01s8.13-4.33 8.13-13.01" class="st13" style="fill:#fff;fill-opacity:.9813084;stroke:none;stroke-opacity:1"/><path id="path3719-5" d="M922.96 305.81v-161.3h38.22v5.15l-.81 8.4h.54c2.53-5.6 6.1-9.85 10.71-12.74s9.98-4.34 16.13-4.34c6.32 0 11.79 1.49 16.4 4.47s7.82 7.28 9.62 12.88h.27c2.53-5.42 6.05-9.67 10.57-12.74s9.76-4.61 15.72-4.61c19.88 0 29.82 14.19 29.82 42.56V305.8h-38.77V185.17c0-7.95-2.35-11.93-7.05-11.93-2.53 0-4.57 1.18-6.1 3.52-1.54 2.35-2.3 5.6-2.3 9.76V305.8h-38.77V184.63c0-7.59-2.35-11.39-7.05-11.39q-4.065 0-6.24 3.66c-1.45 2.44-2.17 5.74-2.17 9.9v119.01z" class="st13" style="fill:#fff;fill-opacity:.9813084;stroke:none;stroke-opacity:1"/><path id="path3721-3" d="M1093.48 305.81v-161.3h38.22v5.15l-.81 8.4h.54c2.53-5.6 6.1-9.85 10.71-12.74s9.98-4.34 16.13-4.34c6.32 0 11.79 1.49 16.4 4.47s7.82 7.28 9.62 12.88h.27c2.53-5.42 6.05-9.67 10.57-12.74s9.76-4.61 15.72-4.61c19.88 0 29.82 14.19 29.82 42.56V305.8h-38.77V185.17c0-7.95-2.35-11.93-7.05-11.93-2.53 0-4.57 1.18-6.1 3.52-1.54 2.35-2.3 5.6-2.3 9.76V305.8h-38.77V184.63c0-7.59-2.35-11.39-7.05-11.39q-4.065 0-6.24 3.66c-1.45 2.44-2.17 5.74-2.17 9.9v119.01z" class="st13" style="fill:#fff;fill-opacity:.9813084;stroke:none;stroke-opacity:1"/><path id="path3723-5" d="M1358.06 235.59h-51.78v29.01q0 14.1 7.59 14.1c2.71 0 4.65-.95 5.83-2.85 1.17-1.9 1.85-5.01 2.03-9.35v-18.43h36.05v17.89c-.18 13.74-4.16 24.4-11.93 31.99s-18.62 11.39-32.53 11.39c-15 0-26.34-4.65-34.02-13.96s-11.52-22.37-11.52-39.17v-62.62c0-16.81 3.93-29.77 11.79-38.9 7.86-9.12 19.2-13.69 34.02-13.69 14.28 0 25.25 4.16 32.94 12.47 7.68 8.31 11.52 20.24 11.52 35.78v46.34zm-49.88-61.13c-1.27 2.26-1.9 5.83-1.9 10.71v27.65h15.45v-27.65c0-4.88-.59-8.45-1.76-10.71-1.18-2.26-3.12-3.39-5.83-3.39s-4.7 1.13-5.96 3.39" class="st13" style="fill:#fff;fill-opacity:.9813084;stroke:none;stroke-opacity:1"/><path id="path3725-6" d="M1448.06 142.07v37.14c-2.89-.9-5.88-1.36-8.95-1.36-6.87 0-12.06 2.26-15.59 6.78-3.52 4.52-5.29 11.21-5.29 20.06v101.12h-38.77v-161.3h37.95v4.88l-1.08 9.76h.54c1.99-5.78 5.02-10.26 9.08-13.42 4.07-3.16 8.45-4.74 13.15-4.74a36.4 36.4 0 0 1 8.96 1.08" class="st13" style="fill:#fff;fill-opacity:.9813084;stroke:none;stroke-opacity:1"/><path id="path3727-2" d="M1471.37 295.51c-7.59-9.04-11.39-22.23-11.39-39.58v-62.35c0-17.35 3.88-30.45 11.66-39.31 7.77-8.85 19.34-13.28 34.7-13.28 13.55 0 24.26 4.16 32.13 12.47q11.79 12.465 11.79 37.68v20.6h-36.6v-27.38c0-3.97-.54-6.91-1.63-8.81-1.08-1.9-2.98-2.85-5.69-2.85-5.24 0-7.86 4.16-7.86 12.47v79.43c0 8.68 2.62 13.01 7.86 13.01 5.06 0 7.59-4.16 7.59-12.47v-29.01h36.6v21.96c0 17.53-3.98 30.41-11.93 38.63-7.96 8.23-18.98 12.33-33.07 12.33-15.18.01-26.57-4.51-34.16-13.54" class="st13" style="fill:#fff;fill-opacity:.9813084;stroke:none;stroke-opacity:1"/><path id="path3729-9" d="M1659.78 235.59H1608v29.01q0 14.1 7.59 14.1c2.71 0 4.65-.95 5.83-2.85 1.17-1.9 1.85-5.01 2.03-9.35v-18.43h36.05v17.89c-.18 13.74-4.16 24.4-11.93 31.99s-18.62 11.39-32.53 11.39c-15 0-26.34-4.65-34.02-13.96s-11.52-22.37-11.52-39.17v-62.62c0-16.81 3.93-29.77 11.79-38.9 7.86-9.12 19.2-13.69 34.02-13.69 14.28 0 25.25 4.16 32.94 12.47 7.68 8.31 11.52 20.24 11.52 35.78v46.34zm-49.88-61.13c-1.27 2.26-1.9 5.83-1.9 10.71v27.65h15.45v-27.65c0-4.88-.59-8.45-1.76-10.71-1.18-2.26-3.12-3.39-5.83-3.39s-4.7 1.13-5.96 3.39" class="st13" style="fill:#fff;fill-opacity:.9813084;stroke:none;stroke-opacity:1"/><path id="path3731-1" d="M909.43 603.84c-7.97-8.91-11.96-22.12-11.96-39.61v-91.57c0-17.66 3.94-30.95 11.83-39.87 7.88-8.91 19.55-13.37 34.98-13.37 31.21 0 46.81 17.49 46.81 52.47v27.01h-38.07v-32.41c0-4.46-.64-7.8-1.93-10.03s-3.56-3.34-6.82-3.34c-5.83 0-8.75 4.46-8.75 13.37v103.4c0 9.09 2.91 13.63 8.75 13.63 2.91 0 5.1-1.07 6.56-3.21 1.45-2.14 2.19-5.53 2.19-10.16v-36.01h38.07v30.61c0 17.49-3.77 30.61-11.32 39.35s-19.38 13.12-35.5 13.12c-15.25 0-26.87-4.46-34.84-13.38" class="st13" style="fill:#fff;fill-opacity:.9813084;stroke:none;stroke-opacity:1"/><path id="path3733-2" d="M1021.06 604.36c-7.46-8.57-11.19-21-11.19-37.3v-59.67q0-24.435 11.19-37.17c7.46-8.49 18.48-12.73 33.05-12.73s25.59 4.24 33.05 12.73q11.19 12.735 11.19 37.17v59.67c0 16.46-3.73 28.94-11.19 37.43s-18.48 12.73-33.05 12.73c-14.58 0-25.59-4.29-33.05-12.86m40.77-29.58v-75.11c0-8.06-2.57-12.09-7.72-12.09-5.14 0-7.72 4.03-7.72 12.09v75.11c0 8.23 2.57 12.35 7.72 12.35 5.15-.01 7.72-4.12 7.72-12.35" class="st13" style="fill:#fff;fill-opacity:.9813084;stroke:none;stroke-opacity:1"/><path id="path3735-7" d="M1184 458.52v35.24c-2.74-.86-5.58-1.29-8.49-1.29-6.52 0-11.45 2.15-14.79 6.43-3.34 4.29-5.02 10.63-5.02 19.03v95.94h-36.78V460.83h36.01v4.63l-1.03 9.26h.51c1.89-5.49 4.76-9.73 8.62-12.73s8.01-4.5 12.47-4.5c2.93 0 5.76.34 8.5 1.03" class="st13" style="fill:#fff;fill-opacity:.9813084;stroke:none;stroke-opacity:1"/><path id="path3737-0" d="M1261.17 582.49v31.12q-11.325 3.6-24.18 3.6c-11.83 0-20.45-3.3-25.85-9.9s-8.1-16.24-8.1-28.94v-87.45h-11.32v-30.09h11.32v-31.38h36.78v31.38h20.32v30.09h-20.32v78.71c0 4.98.81 8.58 2.44 10.8 1.63 2.23 4.24 3.34 7.85 3.34 3.25.01 6.94-.42 11.06-1.28" class="st13" style="fill:#fff;fill-opacity:.9813084;stroke:none;stroke-opacity:1"/><path id="path3739-9" d="M1357.62 547.25h-49.13v27.52c0 8.92 2.4 13.37 7.2 13.37 2.57 0 4.41-.9 5.53-2.7 1.11-1.8 1.76-4.76 1.93-8.87v-17.49h34.21v16.98c-.17 13.03-3.95 23.15-11.32 30.35-7.38 7.2-17.66 10.8-30.86 10.8-14.24 0-24.99-4.41-32.28-13.25-7.29-8.83-10.93-21.22-10.93-37.17v-59.42c0-15.95 3.73-28.25 11.19-36.91q11.19-12.99 32.28-12.99c13.54 0 23.96 3.95 31.25 11.83 7.29 7.89 10.93 19.21 10.93 33.95zm-47.33-58c-1.2 2.15-1.8 5.53-1.8 10.16v26.24h14.66v-26.24c0-4.63-.56-8.01-1.67-10.16-1.12-2.14-2.96-3.21-5.53-3.21s-4.46 1.07-5.66 3.21" class="st13" style="fill:#fff;fill-opacity:.9813084;stroke:none;stroke-opacity:1"/><path id="polygon3741-3" d="m1400.97 617.22 15.53-44.78 14.87 44.78h38.51l-29.1-88.13 27.35-71.6h-29.75L1427.66 492l-13.57-34.51h-38.5l25.38 71.15-29.76 88.58z" class="st13" style="fill:#fff;fill-opacity:.9813084;stroke:none;stroke-opacity:1"/></g><g id="g4133-6" style="display:inline;stroke:#000;stroke-opacity:1" transform="translate(-161.417 61.103)scale(.26458)"><path id="line3745-0" d="m424.23 185.6 47.47 10.68" class="st0" style="fill:none;stroke:#fffff7;stroke-width:7.1546998;stroke-linejoin:round;stroke-miterlimit:10;stroke-opacity:1"/><path id="line3747-6" d="m358.6 170.88 33.42 7.48" class="st0" style="fill:none;stroke:#fffff7;stroke-width:7.1546998;stroke-linejoin:round;stroke-miterlimit:10;stroke-opacity:1"/><path id="line3749-2" d="m325.87 163.47 10.94 2.46" class="st0" style="fill:none;stroke:#fffff7;stroke-width:7.1546998;stroke-linejoin:round;stroke-miterlimit:10;stroke-opacity:1"/><path id="polyline3751-6" d="m495.69 201.68 83.81 18.85L613 543.56l-145.6 97.31-331.75-89.07 43.6-329.97 84.56-26.15-11.01-48.65 49.7 11.18" class="st0" style="fill:none;stroke:#fffff7;stroke-width:7.1546998;stroke-linejoin:round;stroke-miterlimit:10;stroke-opacity:1"/><path id="polyline3753-1" d="m444.98 281.87 49.45 11.17-27.03 347.83 73.79-139.5L613 543.56" class="st0" style="fill:none;stroke:#fffff7;stroke-width:7.1546998;stroke-linejoin:round;stroke-miterlimit:10;stroke-opacity:1"/><path id="line3755-8" d="m283.45 245.37 136.41 30.82" class="st0" style="fill:none;stroke:#fffff7;stroke-width:7.1546998;stroke-linejoin:round;stroke-miterlimit:10;stroke-opacity:1"/><path id="line3757-7" d="m179.25 221.83 77.08 17.42" class="st0" style="fill:none;stroke:#fffff7;stroke-width:7.1546998;stroke-linejoin:round;stroke-miterlimit:10;stroke-opacity:1"/><path id="polyline3759-9" d="m579.5 220.53-55.91 28.99 15.87 16.44-45.03 27.08" class="st0" style="fill:none;stroke:#fffff7;stroke-width:7.1546998;stroke-linejoin:round;stroke-miterlimit:10;stroke-opacity:1"/><path id="line3761-2" d="m539.46 265.96-.15 63.61" style="fill:none;stroke:#fffff7;stroke-width:7.1546998;stroke-linecap:round;stroke-linejoin:round;stroke-miterlimit:10;stroke-opacity:1"/><path id="path3763-0" d="M350.92 147.03s14.42-28.22 54.08-28.22 71.22 41.39 77.15 70.67c4.18 20.62 2.18 30.39 2.18 30.39" class="st0" style="fill:none;stroke:#fffff7;stroke-width:7.1546998;stroke-linejoin:round;stroke-miterlimit:10;stroke-opacity:1"/><path id="line3765-2" d="M348.03 187.73v-28.77" class="st0" style="fill:none;stroke:#fffff7;stroke-width:7.1546998;stroke-linejoin:round;stroke-miterlimit:10;stroke-opacity:1"/><circle id="circle3767-3" cx="265.54" cy="268.8" r="11.2" class="st2" style="fill:none;stroke:#fffff7;stroke-width:7.71950006;stroke-linejoin:round;stroke-miterlimit:10;stroke-opacity:1"/><circle id="circle3769-7" cx="425.03" cy="305.49" r="10.79" class="st2" style="fill:none;stroke:#fffff7;stroke-width:7.71950006;stroke-linejoin:round;stroke-miterlimit:10;stroke-opacity:1"/><circle id="circle3771-5" cx="264.71" cy="195.65" r="5.74" class="st3" style="display:inline;fill:#fffff5;fill-opacity:1;stroke:#fffff7;stroke-opacity:1"/><circle id="circle3773-9" cx="523.35" cy="249.52" r="5.67" class="st3" style="fill:#fffff5;fill-opacity:1;stroke:#fffff7;stroke-opacity:1"/><circle id="circle3775-2" cx="540.13" cy="266.35" r="5.34" class="st3" style="fill:#fffff5;fill-opacity:1;stroke:#fffff7;stroke-opacity:1"/><circle id="circle3777-2" cx="580.12" cy="220.15" r="5.72" class="st3" style="fill:#fffff5;fill-opacity:1;stroke:#fffff7;stroke-opacity:1"/><circle id="circle3779-8" cx="541.19" cy="501.37" r="6.11" class="st3" style="fill:#fffff5;fill-opacity:1;stroke:#fffff7;stroke-opacity:1"/><circle id="circle3781-9" cx="612.65" cy="543.35" r="6.62" class="st3" style="fill:#fffff5;fill-opacity:1;stroke:#fffff7;stroke-opacity:1"/><g id="g4087-7" style="stroke:#000;stroke-opacity:1"><g id="g3865-3" style="stroke:#fffff9;stroke-opacity:1"><circle id="circle3783-6" cx="352.97" cy="325.73" r="7.5" style="fill:none;stroke:#fffff9;stroke-width:8.28429985;stroke-miterlimit:10;stroke-opacity:1"/><circle id="circle3785-1" cx="326.88" cy="326.5" r="6.02" class="st5" style="fill:none;stroke:#fffff9;stroke-width:6.96640015;stroke-miterlimit:10;stroke-opacity:1"/><circle id="circle3787-2" cx="294.26" cy="325.48" r="4.71" class="st5" style="fill:none;stroke:#fffff9;stroke-width:6.96640015;stroke-miterlimit:10;stroke-opacity:1"/><circle id="circle3789-9" cx="273.36" cy="334.16" r="7.85" class="st5" style="fill:none;stroke:#fffff9;stroke-width:6.96640015;stroke-miterlimit:10;stroke-opacity:1"/><circle id="circle3791-3" cx="240.35" cy="335.28" r="6.54" class="st5" style="fill:none;stroke:#fffff9;stroke-width:6.96640015;stroke-miterlimit:10;stroke-opacity:1"/><circle id="circle3793-1" cx="307.56" cy="353.93" r="8.27" class="st5" style="fill:none;stroke:#fffff9;stroke-width:6.96640015;stroke-miterlimit:10;stroke-opacity:1"/><circle id="circle3795-9" cx="255.64" cy="356.82" r="5.38" class="st5" style="fill:none;stroke:#fffff9;stroke-width:6.96640015;stroke-miterlimit:10;stroke-opacity:1"/><circle id="circle3797-4" cx="221.41" cy="352.01" r="4.81" class="st5" style="fill:none;stroke:#fffff9;stroke-width:6.96640015;stroke-miterlimit:10;stroke-opacity:1"/><circle id="circle3799-7" cx="200.74" cy="361.43" r="4.9" class="st5" style="fill:none;stroke:#fffff9;stroke-width:6.96640015;stroke-miterlimit:10;stroke-opacity:1"/><circle id="circle3801-8" cx="191.32" cy="384.6" r="7.4" class="st5" style="fill:none;stroke:#fffff9;stroke-width:6.96640015;stroke-miterlimit:10;stroke-opacity:1"/><circle id="circle3803-4" cx="184.88" cy="408.74" r="6.06" class="st5" style="fill:none;stroke:#fffff9;stroke-width:6.96640015;stroke-miterlimit:10;stroke-opacity:1"/><circle id="circle3805-5" cx="184.01" cy="434.21" r="5.77" class="st5" style="fill:none;stroke:#fffff9;stroke-width:6.96640015;stroke-miterlimit:10;stroke-opacity:1"/><circle id="circle3807-0" cx="203.72" cy="454.4" r="5.77" class="st5" style="fill:none;stroke:#fffff9;stroke-width:6.96640015;stroke-miterlimit:10;stroke-opacity:1"/><circle id="circle3809-3" cx="240.55" cy="425.46" r="7.98" class="st5" style="fill:none;stroke:#fffff9;stroke-width:6.96640015;stroke-miterlimit:10;stroke-opacity:1"/><circle id="circle3811-6" cx="268.04" cy="438.64" r="6.44" class="st5" style="fill:none;stroke:#fffff9;stroke-width:6.96640015;stroke-miterlimit:10;stroke-opacity:1"/><circle id="circle3813-1" cx="265.16" cy="409.7" r="8.17" class="st5" style="fill:none;stroke:#fffff9;stroke-width:6.96640015;stroke-miterlimit:10;stroke-opacity:1"/><circle id="circle3815-0" cx="349.19" cy="408.25" r="8.03" class="st5" style="fill:none;stroke:#fffff9;stroke-width:6.96640015;stroke-miterlimit:10;stroke-opacity:1"/><circle id="circle3817-6" cx="375.43" cy="394.12" r="8.17" class="st5" style="fill:none;stroke:#fffff9;stroke-width:6.96640015;stroke-miterlimit:10;stroke-opacity:1"/><circle id="circle3819-3" cx="397.93" cy="403.45" r="4.81" class="st5" style="fill:none;stroke:#fffff9;stroke-width:6.96640015;stroke-miterlimit:10;stroke-opacity:1"/><circle id="circle3821-2" cx="421.01" cy="401.04" r="7.88" class="st5" style="fill:none;stroke:#fffff9;stroke-width:6.96640015;stroke-miterlimit:10;stroke-opacity:1"/><circle id="circle3823-0" cx="442.98" cy="410.23" r="5.05" class="st5" style="fill:none;stroke:#fffff9;stroke-width:6.96640015;stroke-miterlimit:10;stroke-opacity:1"/><circle id="circle3825-6" cx="453.26" cy="436.23" r="7.64" class="st5" style="fill:none;stroke:#fffff9;stroke-width:6.96640015;stroke-miterlimit:10;stroke-opacity:1"/><circle id="circle3827-1" cx="455.91" cy="465.84" r="6.78" class="st5" style="fill:none;stroke:#fffff9;stroke-width:6.96640015;stroke-miterlimit:10;stroke-opacity:1"/><circle id="circle3829-5" cx="405.58" cy="441.33" r="8.12" class="st6" style="fill:none;stroke:#fffff9;stroke-width:7.1546998;stroke-miterlimit:10;stroke-opacity:1"/><circle id="circle3831-5" cx="445.75" cy="494.59" r="8.27" class="st6" style="fill:none;stroke:#fffff9;stroke-width:7.1546998;stroke-miterlimit:10;stroke-opacity:1"/><circle id="circle3833-4" cx="423.73" cy="523.66" r="6.15" class="st6" style="fill:none;stroke:#fffff9;stroke-width:7.1546998;stroke-miterlimit:10;stroke-opacity:1"/><circle id="circle3835-7" cx="395.14" cy="539.23" r="6.15" class="st6" style="fill:none;stroke:#fffff9;stroke-width:7.1546998;stroke-miterlimit:10;stroke-opacity:1"/><circle id="circle3837-6" cx="337.84" cy="569.42" r="7.95" class="st7" style="fill:none;stroke:#fffff9;stroke-width:7.3428998;stroke-miterlimit:10;stroke-opacity:1"/><circle id="circle3839-5" cx="215.31" cy="407.49" r="7.79" class="st7" style="fill:none;stroke:#fffff9;stroke-width:7.3428998;stroke-miterlimit:10;stroke-opacity:1"/><circle id="circle3841-6" cx="249.01" cy="483.53" r="7.84" class="st7" style="fill:none;stroke:#fffff9;stroke-width:7.3428998;stroke-miterlimit:10;stroke-opacity:1"/><circle id="circle3843-9" cx="275.16" cy="502.43" r="5" class="st7" style="fill:none;stroke:#fffff9;stroke-width:7.3428998;stroke-miterlimit:10;stroke-opacity:1"/><circle id="circle3845-3" cx="308.66" cy="480.55" r="4.71" class="st7" style="fill:none;stroke:#fffff9;stroke-width:7.3428998;stroke-miterlimit:10;stroke-opacity:1"/><circle id="circle3847-7" cx="334.09" cy="444.64" r="4.47" class="st7" style="fill:none;stroke:#fffff9;stroke-width:7.3428998;stroke-miterlimit:10;stroke-opacity:1"/><circle id="circle3849-4" cx="349.62" cy="458.35" r="4.42" class="st7" style="fill:none;stroke:#fffff9;stroke-width:7.3428998;stroke-miterlimit:10;stroke-opacity:1"/><circle id="circle3851-5" cx="308.66" cy="457.77" r="4.33" class="st7" style="fill:none;stroke:#fffff9;stroke-width:7.3428998;stroke-miterlimit:10;stroke-opacity:1"/><circle id="circle3853-2" cx="364.31" cy="430.72" r="4.17" class="st7" style="fill:none;stroke:#fffff9;stroke-width:7.3428998;stroke-miterlimit:10;stroke-opacity:1"/><circle id="circle3855-5" cx="362.84" cy="371.21" r="5.93" class="st7" style="fill:none;stroke:#fffff9;stroke-width:7.3428998;stroke-miterlimit:10;stroke-opacity:1"/><circle id="circle3857-4" cx="382.97" cy="354" r="4.65" class="st7" style="fill:none;stroke:#fffff9;stroke-width:7.3428998;stroke-miterlimit:10;stroke-opacity:1"/><circle id="circle3859-7" cx="401.94" cy="350.47" r="4.2" class="st7" style="fill:none;stroke:#fffff9;stroke-width:7.3428998;stroke-miterlimit:10;stroke-opacity:1"/><circle id="circle3861-4" cx="418.09" cy="369.03" r="5.06" class="st7" style="fill:none;stroke:#fffff9;stroke-width:7.3428998;stroke-miterlimit:10;stroke-opacity:1"/><circle id="circle3863-4" cx="379.74" cy="331.6" r="5.22" class="st7" style="fill:none;stroke:#fffff9;stroke-width:7.3428998;stroke-miterlimit:10;stroke-opacity:1"/></g><g id="g3917-3" style="stroke:#fff;stroke-opacity:.76635515"><circle id="circle3867-0" cx="310.9" cy="331.34" r="4.45" class="st8" style="fill:#fff;fill-opacity:.94859817;stroke:#fff;stroke-opacity:.76635515"/><circle id="circle3869-7" cx="332.05" cy="344.77" r="5.22" class="st8" style="fill:#fff;fill-opacity:.94859817;stroke:#fff;stroke-opacity:.76635515"/><circle id="circle3871-8" cx="327.82" cy="362.65" r="5.22" class="st8" style="fill:#fff;fill-opacity:.94859817;stroke:#fff;stroke-opacity:.76635515"/><circle id="circle3873-6" cx="337.07" cy="383.48" r="5.22" class="st8" style="fill:#fff;fill-opacity:.94859817;stroke:#fff;stroke-opacity:.76635515"/><circle id="circle3875-8" cx="394.69" cy="371.54" r="5.22" class="st8" style="fill:#fff;fill-opacity:.94859817;stroke:#fff;stroke-opacity:.76635515"/><circle id="circle3877-8" cx="403.48" cy="462.65" r="5.22" class="st8" style="fill:#fff;fill-opacity:.94859817;stroke:#fff;stroke-opacity:.76635515"/><circle id="circle3879-4" cx="432.14" cy="436.6" r="6.25" class="st8" style="fill:#fff;fill-opacity:.94859817;stroke:#fff;stroke-opacity:.76635515"/><circle id="circle3881-3" cx="386.88" cy="477.78" r="5.22" class="st8" style="fill:#fff;fill-opacity:.94859817;stroke:#fff;stroke-opacity:.76635515"/><circle id="circle3883-1" cx="375.85" cy="492.57" r="5.22" class="st8" style="fill:#fff;fill-opacity:.94859817;stroke:#fff;stroke-opacity:.76635515"/><circle id="circle3885-4" cx="431.13" cy="421.79" r="5.22" class="st8" style="fill:#fff;fill-opacity:.94859817;stroke:#fff;stroke-opacity:.76635515"/><circle id="circle3887-9" cx="338.74" cy="502.51" r="5.64" class="st8" style="fill:#fff;fill-opacity:.94859817;stroke:#fff;stroke-opacity:.76635515"/><circle id="circle3889-2" cx="334.77" cy="478.54" r="5.64" class="st8" style="fill:#fff;fill-opacity:.94859817;stroke:#fff;stroke-opacity:.76635515"/><circle id="circle3891-0" cx="303.84" cy="440.33" r="5.64" class="st8" style="fill:#fff;fill-opacity:.94859817;stroke:#fff;stroke-opacity:.76635515"/><circle id="circle3893-6" cx="252.69" cy="446.67" r="5.64" class="st8" style="fill:#fff;fill-opacity:.94859817;stroke:#fff;stroke-opacity:.76635515"/><circle id="circle3895-8" cx="239.97" cy="466.54" r="4.87" class="st8" style="fill:#fff;fill-opacity:.94859817;stroke:#fff;stroke-opacity:.76635515"/><circle id="circle3897-9" cx="284.82" cy="438.54" r="3.41" class="st8" style="fill:#fff;fill-opacity:.94859817;stroke:#fff;stroke-opacity:.76635515"/><circle id="circle3899-2" cx="230.8" cy="444.3" r="4.87" class="st8" style="fill:#fff;fill-opacity:.94859817;stroke:#fff;stroke-opacity:.76635515"/><circle id="circle3901-6" cx="297.53" cy="502.03" r="5.64" class="st8" style="fill:#fff;fill-opacity:.94859817;stroke:#fff;stroke-opacity:.76635515"/><circle id="circle3903-6" cx="308.1" cy="514.81" r="5.64" class="st8" style="fill:#fff;fill-opacity:.94859817;stroke:#fff;stroke-opacity:.76635515"/><circle id="circle3905-4" cx="357.71" cy="537.98" r="5.64" class="st8" style="opacity:1;fill:#fff;fill-opacity:.94859817;stroke:#fff;stroke-opacity:.76635515"/><circle id="circle3907-9" cx="401.65" cy="520.04" r="5.64" class="st8" style="fill:#fff;fill-opacity:.94859817;stroke:#fff;stroke-opacity:.76635515"/><circle id="circle3909-5" cx="433.68" cy="511.74" r="3.8" class="st8" style="fill:#fff;fill-opacity:.94859817;stroke:#fff;stroke-opacity:.76635515"/><circle id="circle3911-0" cx="274.53" cy="377.5" r="5.82" class="st8" style="fill:#fff;fill-opacity:.94859817;stroke:#fff;stroke-opacity:.76635515"/><circle id="circle3913-4" cx="255.67" cy="377.5" r="5.82" class="st8" style="fill:#fff;fill-opacity:.94859817;stroke:#fff;stroke-opacity:.76635515"/><circle id="circle3915-8" cx="222.74" cy="376.94" r="5.82" class="st8" style="fill:#fff;fill-opacity:.94859817;stroke:#fff;stroke-opacity:.76635515"/></g><g id="g4085-7" style="stroke:#000;stroke-opacity:1"><path id="path3919-1" d="M236.75 338.89v36.9l12.3 13.74h46.94l13.01 12.6s20.32-18.07 21.92-19.55c1.6-1.47 3.78-.58 3.78-.58" class="st9" style="fill:none;stroke:#fffffe;stroke-width:3.26670003;stroke-miterlimit:10;stroke-opacity:1"/><path id="polyline3921-7" d="M249.04 389.53h-32.11l-6.09-4.22h-12.05" class="st9" style="fill:none;stroke:#fffffe;stroke-width:3.26670003;stroke-miterlimit:10;stroke-opacity:1"/><path id="polyline3923-2" d="M216.93 389.53v-8.64l-14.33-15.9" class="st9" style="fill:none;stroke:#fffffe;stroke-width:3.26670003;stroke-miterlimit:10;stroke-opacity:1"/><path id="line3925-7" d="M274.53 375.18v-33.41" class="st9" style="fill:none;stroke:#fffffe;stroke-width:3.26670003;stroke-miterlimit:10;stroke-opacity:1"/><path id="line3927-2" d="M221.85 355.47v18.8" class="st9" style="fill:none;stroke:#fffffe;stroke-width:3.26670003;stroke-miterlimit:10;stroke-opacity:1"/><path id="line3929-2" d="M255.67 360.89v15.22" class="st9" style="fill:none;stroke:#fffffe;stroke-width:3.26670003;stroke-miterlimit:10;stroke-opacity:1"/><path id="polyline3931-6" d="m326.28 363.5-11.61 11.49h-28.31v-21.3l22.23-22.49" class="st9" style="fill:none;stroke:#fffffe;stroke-width:3.26670003;stroke-miterlimit:10;stroke-opacity:1"/><path id="line3933-1" d="M331.69 329.9v13.65" class="st9" style="fill:none;stroke:#fffffe;stroke-width:3.26670003;stroke-miterlimit:10;stroke-opacity:1"/><path id="polyline3935-0" d="M352.52 332.14v10.58l-18.14 16.73" class="st9" style="fill:none;stroke:#fffffe;stroke-width:3.26670003;stroke-miterlimit:10;stroke-opacity:1"/><path id="polyline3937-6" d="m376.75 334.9-39.68 37.81v10.77" class="st9" style="fill:none;stroke:#fffffe;stroke-width:3.26670003;stroke-miterlimit:10;stroke-opacity:1"/><path id="polyline3939-1" d="M384.5 358.16v17.31l9.23 9.74h13.78l8.98 9.42" class="st9" style="fill:none;stroke:#fffffe;stroke-width:3.26670003;stroke-miterlimit:10;stroke-opacity:1"/><path id="line3941-5" d="M396.85 370.88h16.85" class="st9" style="fill:none;stroke:#fffffe;stroke-width:3.26670003;stroke-miterlimit:10;stroke-opacity:1"/><path id="polyline3943-9" d="m188.44 411.93 14.25 14.54h10.21l16.83 17.33" class="st9" style="fill:none;stroke:#fffffe;stroke-width:3.26670003;stroke-miterlimit:10;stroke-opacity:1"/><path id="polyline3945-4" d="M189.08 434.92h15.62l21.79 21.66h25.3l14.38 14.12h29.85l8.56 8.84" class="st9" style="fill:none;stroke:#fffffe;stroke-width:3.26670003;stroke-miterlimit:10;stroke-opacity:1"/><path id="line3947-9" d="M239.97 432.53v34.32" class="st9" style="fill:none;stroke:#fffffe;stroke-width:3.26670003;stroke-miterlimit:10;stroke-opacity:1"/><path id="polyline3949-0" d="M268.17 443.25v15.22h16.19l17.11-15.96" class="st9" style="fill:none;stroke:#fffffe;stroke-width:3.26670003;stroke-miterlimit:10;stroke-opacity:1"/><path id="polyline3951-9" d="m271.86 414.44 14.55 14.16h35.6l19.81-17.91" class="st9" style="fill:none;stroke:#fffffe;stroke-width:3.26670003;stroke-miterlimit:10;stroke-opacity:1"/><path id="line3953-1" d="M349.48 416.07v38.11" class="st9" style="fill:none;stroke:#fffffe;stroke-width:3.26670003;stroke-miterlimit:10;stroke-opacity:1"/><path id="polyline3955-7" d="M364.03 434.85v44.52l-22.57 21.44" class="st9" style="fill:none;stroke:#fffffe;stroke-width:3.26670003;stroke-miterlimit:10;stroke-opacity:1"/><path id="polyline3957-7" d="M349.14 462.77v14.37l-39.23 37.26" class="st9" style="fill:none;stroke:#fffffe;stroke-width:3.26670003;stroke-miterlimit:10;stroke-opacity:1"/><path id="line3959-1" d="M308.57 484.54v29.18" class="st9" style="fill:none;stroke:#fffffe;stroke-width:3.26670003;stroke-miterlimit:10;stroke-opacity:1"/><path id="path3961-1" d="m332.33 564.07-7.79-8.65v-91.66l-6.22-6.22c-.95-.95-7.44-.31-7.44-.31" class="st9" style="fill:none;stroke:#fffffe;stroke-width:3.26670003;stroke-miterlimit:10;stroke-opacity:1"/><path id="line3963-5" d="M335.25 449.02v28.27" class="st9" style="fill:none;stroke:#fffffe;stroke-width:3.26670003;stroke-miterlimit:10;stroke-opacity:1"/><path id="line3965-9" d="M376.16 401.91v90.42" class="st9" style="fill:none;stroke:#fffffe;stroke-width:3.26670003;stroke-miterlimit:10;stroke-opacity:1"/><path id="line3967-7" d="M378.08 492.57h60.33" class="st9" style="fill:none;stroke:#fffffe;stroke-width:3.26670003;stroke-miterlimit:10;stroke-opacity:1"/><path id="path3969-7" d="M387.98 476.28h47.64s8.85-8.56 10.34-9.71 3.7-.62 3.7-.62" class="st9" style="fill:none;stroke:#fffffe;stroke-width:3.26670003;stroke-miterlimit:10;stroke-opacity:1"/><path id="polyline3971-6" d="M428.46 421.04h-25.43l-15.24 14.57v39.85" class="st9" style="fill:none;stroke:#fffffe;stroke-width:3.26670003;stroke-miterlimit:10;stroke-opacity:1"/><path id="line3973-7" d="m395.14 406.81-18.98 18.24" class="st9" style="fill:none;stroke:#fffffe;stroke-width:3.26670003;stroke-miterlimit:10;stroke-opacity:1"/><path id="polyline3975-3" d="m359.51 374.7-42.24 40.64H298.1l-9.29-8.85h-16.95" class="st9" style="fill:none;stroke:#fffffe;stroke-width:3.26670003;stroke-miterlimit:10;stroke-opacity:1"/><path id="line3977-6" d="M258.36 406.62h-35.31" class="st9" style="fill:none;stroke:#fffffe;stroke-width:3.26670003;stroke-miterlimit:10;stroke-opacity:1"/><path id="polyline3979-5" d="M256.51 483.37h34.93l5.05 5.05v13.61h-17.45" class="st9" style="fill:none;stroke:#fffffe;stroke-width:3.26670003;stroke-miterlimit:10;stroke-opacity:1"/><path id="line3981-6" d="M308.57 461.71v14.52" class="st9" style="fill:none;stroke:#fffffe;stroke-width:3.26670003;stroke-miterlimit:10;stroke-opacity:1"/><path id="polyline3983-3" d="M336.63 562.31v-38.14l19.22-19.23h71.73l6.76 6.76" class="st9" style="fill:none;stroke:#fffffe;stroke-width:3.26670003;stroke-miterlimit:10;stroke-opacity:1"/><path id="path3985-9" d="m342.55 563.57 5.38-4.71v-30.79c0-.73.59-1.32 1.32-1.32h16.66l8.65-7.26h25.33" class="st9" style="fill:none;stroke:#fffffe;stroke-width:3.26670003;stroke-miterlimit:10;stroke-opacity:1"/><path id="line3987-4" d="M404.12 520.65h14.45" class="st9" style="fill:none;stroke:#fffffe;stroke-width:3.26670003;stroke-miterlimit:10;stroke-opacity:1"/><path id="line3989-8" d="M359.91 537.66h29.9" class="st9" style="fill:none;stroke:#fffffe;stroke-width:3.26670003;stroke-miterlimit:10;stroke-opacity:1"/><path id="line3991-1" d="M273.19 438.54h11.63" class="st9" style="fill:none;stroke:#fffffe;stroke-width:3.26670003;stroke-miterlimit:10;stroke-opacity:1"/><path id="polyline3993-2" d="M404.61 449.12v13.36h26.01l19.13-19.13" class="st9" style="fill:none;stroke:#fffffe;stroke-width:3.26670003;stroke-miterlimit:10;stroke-opacity:1"/><path id="line3995-9" d="M412.88 442.27h14.9" class="st9" style="fill:none;stroke:#fffffe;stroke-width:3.26670003;stroke-miterlimit:10;stroke-opacity:1"/><path id="polyline3997-3" d="m439.63 413.41-8.5 7.63v14.36" class="st9" style="fill:none;stroke:#fffffe;stroke-width:3.26670003;stroke-miterlimit:10;stroke-opacity:1"/><path id="path3999-9" d="M329.35 343.55s-2.31.71-5.42 3.75-6.47 5.93-9.23 6.35" class="st9" style="fill:none;stroke:#fffffe;stroke-width:3.26670003;stroke-miterlimit:10;stroke-opacity:1"/><path id="line4001-0" d="M323.61 330.8h-11.89" class="st9" style="fill:none;stroke:#fffffe;stroke-width:3.26670003;stroke-miterlimit:10;stroke-opacity:1"/><circle id="circle4003-8" cx="337.6" cy="569.29" r="7.4" class="st9" style="fill:none;stroke:#fffffe;stroke-width:3.26670003;stroke-miterlimit:10;stroke-opacity:1"/><circle id="circle4005-8" cx="394.92" cy="538.66" r="5.29" class="st9" style="fill:none;stroke:#fffffe;stroke-width:3.26670003;stroke-miterlimit:10;stroke-opacity:1"/><circle id="circle4007-5" cx="423.86" cy="523.63" r="5.42" class="st9" style="fill:none;stroke:#fffffe;stroke-width:3.26670003;stroke-miterlimit:10;stroke-opacity:1"/><circle id="circle4009-0" cx="445.56" cy="494.43" r="7.4" class="st9" style="fill:none;stroke:#fffffe;stroke-width:3.26670003;stroke-miterlimit:10;stroke-opacity:1"/><circle id="circle4011-9" cx="455.94" cy="465.82" r="6.19" class="st9" style="fill:none;stroke:#fffffe;stroke-width:3.26670003;stroke-miterlimit:10;stroke-opacity:1"/><circle id="circle4013-6" cx="453.25" cy="436.17" r="7.18" class="st9" style="fill:none;stroke:#fffffe;stroke-width:3.26670003;stroke-miterlimit:10;stroke-opacity:1"/><circle id="circle4015-3" cx="442.9" cy="410.31" r="4.74" class="st9" style="fill:none;stroke:#fffffe;stroke-width:3.26670003;stroke-miterlimit:10;stroke-opacity:1"/><circle id="circle4017-8" cx="420.78" cy="400.95" r="7.6" class="st9" style="fill:none;stroke:#fffffe;stroke-width:3.26670003;stroke-miterlimit:10;stroke-opacity:1"/><circle id="circle4019-5" cx="398.16" cy="403.29" r="4.71" class="st9" style="fill:none;stroke:#fffffe;stroke-width:3.26670003;stroke-miterlimit:10;stroke-opacity:1"/><circle id="circle4021-6" cx="375.15" cy="394.63" r="7.27" class="st9" style="fill:none;stroke:#fffffe;stroke-width:3.26670003;stroke-miterlimit:10;stroke-opacity:1"/><circle id="circle4023-1" cx="349.09" cy="408.22" r="7.11" class="st9" style="fill:none;stroke:#fffffe;stroke-width:3.26670003;stroke-miterlimit:10;stroke-opacity:1"/><circle id="circle4025-1" cx="364.31" cy="430.53" r="4.52" class="st9" style="fill:none;stroke:#fffffe;stroke-width:3.26670003;stroke-miterlimit:10;stroke-opacity:1"/><circle id="circle4027-5" cx="333.87" cy="445.08" r="4.33" class="st9" style="fill:none;stroke:#fffffe;stroke-width:3.26670003;stroke-miterlimit:10;stroke-opacity:1"/><circle id="circle4029-9" cx="405.56" cy="441.36" r="7.32" class="st9" style="fill:none;stroke:#fffffe;stroke-width:3.26670003;stroke-miterlimit:10;stroke-opacity:1"/><circle id="circle4031-8" cx="349.48" cy="458.15" r="4.01" class="st9" style="fill:none;stroke:#fffffe;stroke-width:3.26670003;stroke-miterlimit:10;stroke-opacity:1"/><circle id="circle4033-4" cx="308.33" cy="457.86" r="4.26" class="st9" style="fill:none;stroke:#fffffe;stroke-width:3.26670003;stroke-miterlimit:10;stroke-opacity:1"/><circle id="circle4035-8" cx="308.57" cy="480.62" r="4.51" class="st9" style="fill:none;stroke:#fffffe;stroke-width:3.26670003;stroke-miterlimit:10;stroke-opacity:1"/><circle id="circle4037-1" cx="274.87" cy="502.38" r="4.78" class="st9" style="fill:none;stroke:#fffffe;stroke-width:3.26670003;stroke-miterlimit:10;stroke-opacity:1"/><circle id="circle4039-0" cx="249.07" cy="483.37" r="7.44" class="st9" style="fill:none;stroke:#fffffe;stroke-width:3.26670003;stroke-miterlimit:10;stroke-opacity:1"/><circle id="circle4041-3" cx="203.6" cy="454.26" r="4.64" class="st9" style="fill:none;stroke:#fffffe;stroke-width:3.26670003;stroke-miterlimit:10;stroke-opacity:1"/><circle id="circle4043-0" cx="183.84" cy="434.04" r="4.65" class="st9" style="fill:none;stroke:#fffffe;stroke-width:3.26670003;stroke-miterlimit:10;stroke-opacity:1"/><circle id="circle4045-4" cx="240.55" cy="425.51" r="7.4" class="st9" style="fill:none;stroke:#fffffe;stroke-width:3.26670003;stroke-miterlimit:10;stroke-opacity:1"/><circle id="circle4047-4" cx="267.95" cy="438.54" r="5.76" class="st9" style="fill:none;stroke:#fffffe;stroke-width:3.26670003;stroke-miterlimit:10;stroke-opacity:1"/><circle id="circle4049-4" cx="265.16" cy="409.84" r="7.52" class="st9" style="fill:none;stroke:#fffffe;stroke-width:3.26670003;stroke-miterlimit:10;stroke-opacity:1"/><circle id="circle4051-4" cx="215.29" cy="407.49" r="7.63" class="st9" style="fill:none;stroke:#fffffe;stroke-width:3.26670003;stroke-miterlimit:10;stroke-opacity:1"/><circle id="circle4053-7" cx="191.51" cy="384.73" r="6.89" class="st9" style="fill:none;stroke:#fffffe;stroke-width:3.26670003;stroke-miterlimit:10;stroke-opacity:1"/><circle id="circle4055-6" cx="184.62" cy="408.74" r="5.19" class="st9" style="fill:none;stroke:#fffffe;stroke-width:3.26670003;stroke-miterlimit:10;stroke-opacity:1"/><circle id="circle4057-3" cx="362.81" cy="371.05" r="5.16" class="st9" style="fill:none;stroke:#fffffe;stroke-width:3.26670003;stroke-miterlimit:10;stroke-opacity:1"/><circle id="circle4059-1" cx="383.29" cy="354.13" r="4.39" class="st9" style="fill:none;stroke:#fffffe;stroke-width:3.26670003;stroke-miterlimit:10;stroke-opacity:1"/><circle id="circle4061-7" cx="401.94" cy="350.47" r="4.2" class="st9" style="fill:none;stroke:#fffffe;stroke-width:3.26670003;stroke-miterlimit:10;stroke-opacity:1"/><circle id="circle4063-5" cx="379.89" cy="331.37" r="4.39" class="st9" style="fill:none;stroke:#fffffe;stroke-width:3.26670003;stroke-miterlimit:10;stroke-opacity:1"/><circle id="circle4065-9" cx="353.13" cy="325.8" r="7.11" class="st9" style="fill:none;stroke:#fffffe;stroke-width:3.26670003;stroke-miterlimit:10;stroke-opacity:1"/><circle id="circle4067-6" cx="327.07" cy="326.63" r="5.8" class="st9" style="fill:none;stroke:#fffffe;stroke-width:3.26670003;stroke-miterlimit:10;stroke-opacity:1"/><circle id="circle4069-2" cx="294.51" cy="325.38" r="4.07" class="st9" style="fill:none;stroke:#fffffe;stroke-width:3.26670003;stroke-miterlimit:10;stroke-opacity:1"/><circle id="circle4071-1" cx="273.07" cy="334.38" r="7.39" class="st9" style="fill:none;stroke:#fffffe;stroke-width:3.26670003;stroke-miterlimit:10;stroke-opacity:1"/><circle id="circle4073-7" cx="240.55" cy="335.06" r="6.25" class="st9" style="fill:none;stroke:#fffffe;stroke-width:3.26670003;stroke-miterlimit:10;stroke-opacity:1"/><circle id="circle4075-8" cx="221.6" cy="351.72" r="4.23" class="st9" style="fill:none;stroke:#fffffe;stroke-width:3.26670003;stroke-miterlimit:10;stroke-opacity:1"/><circle id="circle4077-5" cx="200.33" cy="361.69" r="5" class="st9" style="fill:none;stroke:#fffffe;stroke-width:3.26670003;stroke-miterlimit:10;stroke-opacity:1"/><circle id="circle4079-7" cx="255.98" cy="356.58" r="4.31" class="st9" style="fill:none;stroke:#fffffe;stroke-width:3.26670003;stroke-miterlimit:10;stroke-opacity:1"/><circle id="circle4081-4" cx="307.32" cy="354.03" r="7.74" class="st9" style="fill:none;stroke:#fffffe;stroke-width:3.26670003;stroke-miterlimit:10;stroke-opacity:1"/><circle id="circle4083-1" cx="418.15" cy="369.29" r="4.69" class="st9" style="fill:none;stroke:#fffffe;stroke-width:3.26670003;stroke-miterlimit:10;stroke-opacity:1"/></g></g><ellipse id="ellipse4089-8" cx="264.97" cy="268.01" rx="11.15" ry="11.57" style="fill:none;stroke:#fffff9;stroke-width:3.41709995;stroke-linejoin:round;stroke-miterlimit:10;stroke-opacity:1"/><ellipse id="ellipse4091-5" cx="424.56" cy="305.02" rx="10.62" ry="11.42" style="fill:none;stroke:#fffff9;stroke-width:3.20849991;stroke-linejoin:round;stroke-miterlimit:10;stroke-opacity:1"/><circle id="circle4093-9" cx="523.21" cy="249.33" r="3.75" class="st8" style="fill:#fffff7;fill-opacity:1;stroke:#fffff9;stroke-opacity:1"/><circle id="circle4095-7" cx="580.36" cy="220.49" r="3.27" class="st8" style="display:inline;fill:#fffff7;fill-opacity:1;stroke:#fffff9;stroke-opacity:1"/><circle id="circle4097-5" cx="264.82" cy="195.87" r="3.77" class="st8" style="display:inline;opacity:1;fill:#fffff7;fill-opacity:1;stroke:#fffff9;stroke-opacity:1"/><circle id="circle4099-3" cx="613.51" cy="543.65" r="2.98" class="st8" style="display:inline;fill:#fffff7;fill-opacity:1;stroke:#fffff9;stroke-opacity:1"/><circle id="circle4101-8" cx="540.841" cy="500.354" r="3.7" class="st8" style="fill:#fffff7;fill-opacity:1;stroke:#fffff9;stroke-opacity:1"/><circle id="circle4103-8" cx="540.665" cy="266.049" r="3.72" class="st8" style="fill:#fffff7;fill-opacity:1;stroke:#fffff9;stroke-opacity:1"/><path id="path4105-3" d="M265.247 260.11s-2.067-109.63 89.563-105.68c60.14 2.6 74.56 61.44 78.6 80.76s-4.053 42.363-6.206 54.844a2108 2108 0 0 0-1.638 7.469" class="st0" style="fill:none;stroke:#fffff9;stroke-width:7.1546998;stroke-linejoin:round;stroke-miterlimit:10;stroke-opacity:1"/><g id="g4131-1" style="stroke:#000;stroke-opacity:1"><path id="polyline4107-8" d="m495.66 201.78 85.04 19.28 32.02 322.85-145.74 97.56-331.4-89.14 44.3-330.5 83.64-26.63-10.19-48.36L302.55 158" class="st12" style="fill:none;stroke:#fff;stroke-width:3.20079994;stroke-linejoin:round;stroke-miterlimit:10;stroke-opacity:.9766355"/><path id="line4109-9" d="m424.23 185.6 47.42 10.74" class="st12" style="fill:none;stroke:#fff;stroke-width:3.20079994;stroke-linejoin:round;stroke-miterlimit:10;stroke-opacity:.9766355"/><path id="line4111-6" d="m358.64 170.72 33.38 7.48" class="st12" style="fill:none;stroke:#fff;stroke-width:3.20079994;stroke-linejoin:round;stroke-miterlimit:10;stroke-opacity:.9766355"/><path id="line4113-4" d="m325.87 163.29 10.94 2.48" class="st12" style="fill:none;stroke:#fff;stroke-width:3.20079994;stroke-linejoin:round;stroke-miterlimit:10;stroke-opacity:.9766355"/><path id="polyline4115-3" d="m444.98 281.8 49.86 11.27 44.23-27.78-15-16.15 56.63-28.08" class="st12" style="fill:none;stroke:#fff;stroke-width:3.20079994;stroke-linejoin:round;stroke-miterlimit:10;stroke-opacity:.9766355"/><path id="line4117-3" d="m283.42 245.25 136.44 30.86" class="st12" style="fill:none;stroke:#fff;stroke-width:3.20079994;stroke-linejoin:round;stroke-miterlimit:10;stroke-opacity:.9766355"/><path id="line4119-3" d="m179.88 221.83 76.45 17.42" class="st12" style="fill:none;stroke:#fff;stroke-width:3.20079994;stroke-linejoin:round;stroke-miterlimit:10;stroke-opacity:.9766355"/><path id="polyline4121-8" d="m494.84 293.07-27.86 348.4 74.01-140.2 71.73 42.64" class="st12" style="fill:none;stroke:#fff;stroke-width:3.20079994;stroke-linejoin:round;stroke-miterlimit:10;stroke-opacity:.9766355"/><path id="line4123-6" d="M539.07 265.29v66.24" class="st12" style="fill:none;stroke:#fff;stroke-width:3.20079994;stroke-linejoin:round;stroke-miterlimit:10;stroke-opacity:.9766355"/><path id="path4125-0" d="M265.247 260.11s.483-109.04 89.513-105.96c44.35 1.53 84.37 47.59 78.93 98.07-2.69 25-6.624 29.703-8.124 45.283" class="st12" style="fill:none;stroke:#fff;stroke-width:3.20079994;stroke-linejoin:round;stroke-miterlimit:10;stroke-opacity:.9766355"/><path id="path4127-4" d="M347.7 158.96c0 1.57-.12 4.34-.12 6.15v22.63" class="st12" style="fill:none;stroke:#fff;stroke-width:3.20079994;stroke-linejoin:round;stroke-miterlimit:10;stroke-opacity:.9766355"/><path id="path4129-8" d="M483.98 219.72s8.27-42.3-29.23-77.88c-34.18-32.42-87.68-28.46-103.83 5" class="st12" style="fill:none;stroke:#fff;stroke-width:3.20079994;stroke-linejoin:round;stroke-miterlimit:10;stroke-opacity:.9766355"/></g></g></g><style id="style3713" type="text/css">.st0,.st2{fill:none;stroke:#be6c2f;stroke-width:7.1547;stroke-linejoin:round;stroke-miterlimit:10}.st2{stroke-width:7.7195}.st3{fill:#be6c2f}.st5{stroke-width:6.9664}.st5,.st6,.st7{fill:none;stroke:#f3812f;stroke-miterlimit:10}.st6{stroke-width:7.1547}.st7{stroke-width:7.3429}.st8{fill:#fff}.st12,.st9{fill:none;stroke:#fff;stroke-miterlimit:10}.st9{stroke-width:3.2667}.st12{stroke-width:3.2008;stroke-linejoin:round}.st13{fill:#f7941e}</style></svg>