<?xml version="1.0" encoding="utf-8"?>
<!-- Generator: Adobe Illustrator 26.0.1, SVG Export Plug-In . SVG Version: 6.00 Build 0)  -->
<svg version="1.1" id="Layer_1" xmlns="http://www.w3.org/2000/svg" xmlns:xlink="http://www.w3.org/1999/xlink" x="0px" y="0px"
	 viewBox="0 0 605.24 651.55" style="enable-background:new 0 0 605.24 651.55;" xml:space="preserve">
<style type="text/css">
	.st0{fill:none;stroke:#BE6C2F;stroke-width:7.1547;stroke-linejoin:round;stroke-miterlimit:10;}
	.st1{fill:none;stroke:#BE6C2F;stroke-width:7.1547;stroke-linecap:round;stroke-linejoin:round;stroke-miterlimit:10;}
	.st2{fill:none;stroke:#BE6C2F;stroke-width:7.7195;stroke-linejoin:round;stroke-miterlimit:10;}
	.st3{fill:#BE6C2F;}
	.st4{fill:none;stroke:#F3812F;stroke-width:8.2843;stroke-miterlimit:10;}
	.st5{fill:none;stroke:#F3812F;stroke-width:6.9664;stroke-miterlimit:10;}
	.st6{fill:none;stroke:#F3812F;stroke-width:7.1547;stroke-miterlimit:10;}
	.st7{fill:none;stroke:#F3812F;stroke-width:7.3429;stroke-miterlimit:10;}
	.st8{fill:#FFFFFF;}
	.st9{fill:none;stroke:#FFFFFF;stroke-width:3.2667;stroke-miterlimit:10;}
	.st10{fill:none;stroke:#FFFFFF;stroke-width:3.4171;stroke-linejoin:round;stroke-miterlimit:10;}
	.st11{fill:none;stroke:#FFFFFF;stroke-width:3.2085;stroke-linejoin:round;stroke-miterlimit:10;}
	.st12{fill:none;stroke:#FFFFFF;stroke-width:3.2008;stroke-linejoin:round;stroke-miterlimit:10;}
	.st13{fill:#F7941E;}
</style>
<g>
	<line class="st0" x1="351.18" y1="131.53" x2="398.65" y2="142.21"/>
	<line class="st0" x1="285.55" y1="116.81" x2="318.97" y2="124.28"/>
	<line class="st0" x1="252.82" y1="109.4" x2="263.76" y2="111.86"/>
	<polyline class="st0" points="422.64,147.61 506.45,166.46 539.95,489.49 394.34,586.8 62.6,497.73 106.2,167.76 190.76,141.61 
		179.75,92.96 229.45,104.14 	"/>
	<polyline class="st0" points="371.93,227.8 421.38,238.97 394.34,586.8 468.13,447.3 539.95,489.49 	"/>
	<line class="st0" x1="210.4" y1="191.3" x2="346.8" y2="222.12"/>
	<line class="st0" x1="106.2" y1="167.76" x2="183.28" y2="185.18"/>
	<polyline class="st0" points="506.45,166.46 450.54,195.45 466.4,211.89 421.38,238.97 	"/>
	<line class="st1" x1="466.4" y1="211.89" x2="466.26" y2="275.5"/>
	<path class="st0" d="M277.87,92.96c0,0,14.42-28.22,54.08-28.22s71.22,41.39,77.15,70.67c4.18,20.62,2.18,30.39,2.18,30.39"/>
	<line class="st0" x1="274.98" y1="133.66" x2="274.98" y2="104.89"/>
	<circle class="st2" cx="192.49" cy="214.73" r="11.2"/>
	<circle class="st2" cx="351.98" cy="251.42" r="10.79"/>
	<circle class="st3" cx="191.66" cy="141.58" r="5.74"/>
	<circle class="st3" cx="450.3" cy="195.45" r="5.67"/>
	<circle class="st3" cx="467.08" cy="212.28" r="5.34"/>
	<circle class="st3" cx="507.07" cy="166.08" r="5.72"/>
	<circle class="st3" cx="468.13" cy="447.3" r="6.11"/>
	<circle class="st3" cx="539.6" cy="489.28" r="6.62"/>
	<g>
		<g>
			<circle class="st4" cx="279.92" cy="271.66" r="7.5"/>
			<circle class="st5" cx="253.83" cy="272.43" r="6.02"/>
			<circle class="st5" cx="221.21" cy="271.4" r="4.71"/>
			<circle class="st5" cx="200.31" cy="280.09" r="7.85"/>
			<circle class="st5" cx="167.3" cy="281.21" r="6.54"/>
			<circle class="st5" cx="234.51" cy="299.86" r="8.27"/>
			<circle class="st5" cx="182.59" cy="302.75" r="5.38"/>
			<circle class="st5" cx="148.36" cy="297.94" r="4.81"/>
			<circle class="st5" cx="127.69" cy="307.36" r="4.9"/>
			<circle class="st5" cx="118.27" cy="330.53" r="7.4"/>
			<circle class="st5" cx="111.83" cy="354.66" r="6.06"/>
			<circle class="st5" cx="110.96" cy="380.14" r="5.77"/>
			<circle class="st5" cx="130.67" cy="400.33" r="5.77"/>
			<circle class="st5" cx="167.49" cy="371.39" r="7.98"/>
			<circle class="st5" cx="194.99" cy="384.56" r="6.44"/>
			<circle class="st5" cx="192.11" cy="355.63" r="8.17"/>
			<circle class="st5" cx="276.14" cy="354.18" r="8.03"/>
			<circle class="st5" cx="302.38" cy="340.05" r="8.17"/>
			<circle class="st5" cx="324.88" cy="349.38" r="4.81"/>
			<circle class="st5" cx="347.95" cy="346.97" r="7.88"/>
			<circle class="st5" cx="369.92" cy="356.15" r="5.05"/>
			<circle class="st5" cx="380.21" cy="382.16" r="7.64"/>
			<circle class="st5" cx="382.85" cy="411.77" r="6.78"/>
			<circle class="st6" cx="332.52" cy="387.26" r="8.12"/>
			<circle class="st6" cx="372.7" cy="440.52" r="8.27"/>
			<circle class="st6" cx="350.68" cy="469.59" r="6.15"/>
			<circle class="st6" cx="322.09" cy="485.16" r="6.15"/>
			<circle class="st7" cx="264.79" cy="515.35" r="7.95"/>
			<circle class="st7" cx="142.26" cy="353.41" r="7.79"/>
			<circle class="st7" cx="175.95" cy="429.46" r="7.84"/>
			<circle class="st7" cx="202.11" cy="448.36" r="5"/>
			<circle class="st7" cx="235.61" cy="426.48" r="4.71"/>
			<circle class="st7" cx="261.04" cy="390.57" r="4.47"/>
			<circle class="st7" cx="276.57" cy="404.27" r="4.42"/>
			<circle class="st7" cx="235.61" cy="403.7" r="4.33"/>
			<circle class="st7" cx="291.26" cy="376.65" r="4.17"/>
			<circle class="st7" cx="289.79" cy="317.14" r="5.93"/>
			<circle class="st7" cx="309.91" cy="299.93" r="4.65"/>
			<circle class="st7" cx="328.89" cy="296.4" r="4.2"/>
			<circle class="st7" cx="345.04" cy="314.96" r="5.06"/>
			<circle class="st7" cx="306.68" cy="277.53" r="5.22"/>
		</g>
		<g>
			<circle class="st8" cx="237.85" cy="277.27" r="4.45"/>
			<circle class="st8" cx="259" cy="290.7" r="5.22"/>
			<circle class="st8" cx="254.77" cy="308.58" r="5.22"/>
			<circle class="st8" cx="264.02" cy="329.41" r="5.22"/>
			<circle class="st8" cx="321.64" cy="317.46" r="5.22"/>
			<circle class="st8" cx="330.42" cy="408.58" r="5.22"/>
			<circle class="st8" cx="359.08" cy="382.53" r="6.25"/>
			<circle class="st8" cx="313.82" cy="423.71" r="5.22"/>
			<circle class="st8" cx="302.8" cy="438.5" r="5.22"/>
			<circle class="st8" cx="358.08" cy="367.72" r="5.22"/>
			<circle class="st8" cx="265.69" cy="448.44" r="5.64"/>
			<circle class="st8" cx="261.71" cy="424.46" r="5.64"/>
			<circle class="st8" cx="230.79" cy="386.26" r="5.64"/>
			<circle class="st8" cx="179.64" cy="392.6" r="5.64"/>
			<circle class="st8" cx="166.92" cy="412.47" r="4.87"/>
			<circle class="st8" cx="211.77" cy="384.47" r="3.41"/>
			<circle class="st8" cx="157.75" cy="390.23" r="4.87"/>
			<circle class="st8" cx="224.47" cy="447.96" r="5.64"/>
			<circle class="st8" cx="235.05" cy="460.74" r="5.64"/>
			<circle class="st8" cx="284.66" cy="483.91" r="5.64"/>
			<circle class="st8" cx="328.6" cy="465.97" r="5.64"/>
			<circle class="st8" cx="360.63" cy="457.67" r="3.8"/>
			<circle class="st8" cx="201.48" cy="323.43" r="5.82"/>
			<circle class="st8" cx="182.62" cy="323.43" r="5.82"/>
			<circle class="st8" cx="149.69" cy="322.87" r="5.82"/>
		</g>
		<g>
			<path class="st9" d="M163.7,284.82v36.9l12.3,13.74h46.94l13.01,12.6c0,0,20.32-18.07,21.92-19.55c1.6-1.47,3.78-0.58,3.78-0.58"
				/>
			<polyline class="st9" points="175.99,335.46 143.87,335.46 137.79,331.24 125.74,331.24 			"/>
			<polyline class="st9" points="143.87,335.46 143.87,326.81 129.55,310.92 			"/>
			<line class="st9" x1="201.48" y1="321.11" x2="201.48" y2="287.7"/>
			<line class="st9" x1="148.79" y1="301.4" x2="148.79" y2="320.2"/>
			<line class="st9" x1="182.62" y1="306.82" x2="182.62" y2="322.04"/>
			<polyline class="st9" points="253.23,309.43 241.62,320.92 213.31,320.92 213.31,299.62 235.54,277.12 			"/>
			<line class="st9" x1="258.64" y1="275.83" x2="258.64" y2="289.48"/>
			<polyline class="st9" points="279.47,278.07 279.47,288.65 261.33,305.37 			"/>
			<polyline class="st9" points="303.7,280.83 264.02,318.64 264.02,329.41 			"/>
			<polyline class="st9" points="311.45,304.09 311.45,321.4 320.68,331.14 334.46,331.14 343.44,340.56 			"/>
			<line class="st9" x1="323.8" y1="316.81" x2="340.65" y2="316.81"/>
			<polyline class="st9" points="115.38,357.86 129.64,372.4 139.85,372.4 156.68,389.73 			"/>
			<polyline class="st9" points="116.02,380.85 131.65,380.85 153.44,402.51 178.74,402.51 193.12,416.63 222.97,416.63 
				231.52,425.47 			"/>
			<line class="st9" x1="166.92" y1="378.46" x2="166.92" y2="412.78"/>
			<polyline class="st9" points="195.12,389.18 195.12,404.4 211.3,404.4 228.42,388.44 			"/>
			<polyline class="st9" points="198.8,360.37 213.35,374.53 248.96,374.53 268.76,356.62 			"/>
			<line class="st9" x1="276.42" y1="362" x2="276.42" y2="400.11"/>
			<polyline class="st9" points="290.97,380.78 290.97,425.3 268.41,446.74 			"/>
			<polyline class="st9" points="276.09,408.7 276.09,423.07 236.86,460.33 			"/>
			<line class="st9" x1="235.51" y1="430.47" x2="235.51" y2="459.65"/>
			<path class="st9" d="M259.28,510l-7.79-8.65v-91.66c0,0-5.27-5.27-6.22-6.22c-0.95-0.95-7.44-0.31-7.44-0.31"/>
			<line class="st9" x1="262.19" y1="394.95" x2="262.19" y2="423.21"/>
			<line class="st9" x1="303.1" y1="347.84" x2="303.1" y2="438.26"/>
			<line class="st9" x1="305.03" y1="438.5" x2="365.36" y2="438.5"/>
			<path class="st9" d="M314.93,422.2h47.64c0,0,8.85-8.56,10.34-9.71c1.49-1.15,3.7-0.62,3.7-0.62"/>
			<polyline class="st9" points="355.41,366.97 329.98,366.97 314.74,381.54 314.74,421.39 			"/>
			<line class="st9" x1="322.09" y1="352.74" x2="303.1" y2="370.98"/>
			<polyline class="st9" points="286.45,320.63 244.22,361.27 225.05,361.27 215.76,352.42 198.8,352.42 			"/>
			<line class="st9" x1="185.31" y1="352.55" x2="150" y2="352.55"/>
			<polyline class="st9" points="183.45,429.3 218.39,429.3 223.43,434.35 223.43,447.96 205.98,447.96 			"/>
			<line class="st9" x1="235.51" y1="407.64" x2="235.51" y2="422.16"/>
			<polyline class="st9" points="263.57,508.24 263.57,470.1 282.8,450.87 354.52,450.87 361.29,457.63 			"/>
			<path class="st9" d="M269.5,509.5l5.38-4.71V474c0-0.73,0.59-1.32,1.32-1.32h16.66l8.65-7.26h25.33"/>
			<line class="st9" x1="331.07" y1="466.57" x2="345.52" y2="466.57"/>
			<line class="st9" x1="286.86" y1="483.59" x2="316.76" y2="483.59"/>
			<line class="st9" x1="200.13" y1="384.47" x2="211.77" y2="384.47"/>
			<polyline class="st9" points="331.56,395.04 331.56,408.41 357.57,408.41 376.7,389.28 			"/>
			<line class="st9" x1="339.83" y1="388.19" x2="354.73" y2="388.19"/>
			<polyline class="st9" points="366.57,359.34 358.08,366.97 358.08,381.33 			"/>
			<path class="st9" d="M256.3,289.48c0,0-2.31,0.71-5.42,3.75c-3.11,3.04-6.47,5.93-9.23,6.35"/>
			<line class="st9" x1="250.56" y1="276.72" x2="238.67" y2="276.72"/>
			<circle class="st9" cx="264.55" cy="515.22" r="7.4"/>
			<circle class="st9" cx="321.87" cy="484.59" r="5.29"/>
			<circle class="st9" cx="350.81" cy="469.56" r="5.42"/>
			<circle class="st9" cx="372.5" cy="440.36" r="7.4"/>
			<circle class="st9" cx="382.89" cy="411.75" r="6.19"/>
			<circle class="st9" cx="380.19" cy="382.1" r="7.18"/>
			<circle class="st9" cx="369.84" cy="356.23" r="4.74"/>
			<circle class="st9" cx="347.73" cy="346.88" r="7.6"/>
			<circle class="st9" cx="325.1" cy="349.22" r="4.71"/>
			<circle class="st9" cx="302.09" cy="340.56" r="7.27"/>
			<circle class="st9" cx="276.04" cy="354.15" r="7.11"/>
			<circle class="st9" cx="291.26" cy="376.46" r="4.52"/>
			<circle class="st9" cx="260.82" cy="391.01" r="4.33"/>
			<circle class="st9" cx="332.51" cy="387.29" r="7.32"/>
			<circle class="st9" cx="276.42" cy="404.08" r="4.01"/>
			<circle class="st9" cx="235.27" cy="403.79" r="4.26"/>
			<circle class="st9" cx="235.51" cy="426.55" r="4.51"/>
			<circle class="st9" cx="201.82" cy="448.31" r="4.78"/>
			<circle class="st9" cx="176.02" cy="429.3" r="7.44"/>
			<circle class="st9" cx="130.55" cy="400.19" r="4.64"/>
			<circle class="st9" cx="110.79" cy="379.97" r="4.65"/>
			<circle class="st9" cx="167.49" cy="371.44" r="7.4"/>
			<circle class="st9" cx="194.89" cy="384.47" r="5.76"/>
			<circle class="st9" cx="192.11" cy="355.77" r="7.52"/>
			<circle class="st9" cx="142.24" cy="353.41" r="7.63"/>
			<circle class="st9" cx="118.46" cy="330.66" r="6.89"/>
			<circle class="st9" cx="111.57" cy="354.66" r="5.19"/>
			<circle class="st9" cx="289.76" cy="316.98" r="5.16"/>
			<circle class="st9" cx="310.23" cy="300.05" r="4.39"/>
			<circle class="st9" cx="328.89" cy="296.4" r="4.2"/>
			<circle class="st9" cx="306.84" cy="277.3" r="4.39"/>
			<circle class="st9" cx="280.08" cy="271.72" r="7.11"/>
			<circle class="st9" cx="254.02" cy="272.56" r="5.8"/>
			<circle class="st9" cx="221.46" cy="271.31" r="4.07"/>
			<circle class="st9" cx="200.02" cy="280.31" r="7.39"/>
			<circle class="st9" cx="167.49" cy="280.99" r="6.25"/>
			<circle class="st9" cx="148.55" cy="297.65" r="4.23"/>
			<circle class="st9" cx="127.27" cy="307.62" r="5"/>
			<circle class="st9" cx="182.92" cy="302.51" r="4.31"/>
			<circle class="st9" cx="234.27" cy="299.96" r="7.74"/>
			<circle class="st9" cx="345.09" cy="315.22" r="4.69"/>
		</g>
	</g>
	<ellipse class="st10" cx="191.91" cy="213.94" rx="11.15" ry="11.57"/>
	<ellipse class="st11" cx="351.51" cy="250.95" rx="10.62" ry="11.42"/>
	<circle class="st8" cx="450.15" cy="195.26" r="3.75"/>
	<circle class="st8" cx="507.31" cy="166.42" r="3.27"/>
	<circle class="st8" cx="191.77" cy="141.8" r="3.77"/>
	<circle class="st8" cx="540.46" cy="489.58" r="2.98"/>
	<circle class="st8" cx="467.22" cy="446.53" r="3.7"/>
	<circle class="st8" cx="467.65" cy="211.22" r="3.72"/>
	<path class="st0" d="M192.11,212.37c0,0-1.98-115.96,89.65-112.01c60.14,2.6,74.56,61.44,78.6,80.76s-5.66,46.47-6.92,59.13
		c-0.67,6.73-1.46,11.04-1.46,11.04"/>
	<g>
		<polyline class="st12" points="422.61,147.71 507.65,166.99 539.66,489.84 393.93,587.39 62.53,498.25 106.83,167.76 
			190.47,141.13 180.28,92.77 229.49,103.93 		"/>
		<line class="st12" x1="351.18" y1="131.53" x2="398.59" y2="142.27"/>
		<line class="st12" x1="285.59" y1="116.65" x2="318.97" y2="124.13"/>
		<line class="st12" x1="252.82" y1="109.22" x2="263.76" y2="111.7"/>
		<polyline class="st12" points="371.93,227.73 421.79,239 466.02,211.22 451.02,195.07 507.65,166.99 		"/>
		<line class="st12" x1="210.37" y1="191.18" x2="346.8" y2="222.04"/>
		<line class="st12" x1="106.83" y1="167.76" x2="183.28" y2="185.18"/>
		<polyline class="st12" points="421.79,239 393.93,587.39 467.94,447.2 539.66,489.84 		"/>
		<line class="st12" x1="466.02" y1="211.22" x2="466.02" y2="277.46"/>
		<path class="st12" d="M191.84,212.38c0,0,0.84-115.38,89.87-112.3c44.35,1.53,84.37,47.59,78.93,98.07
			c-2.69,25-7.3,37.23-8.8,52.81"/>
		<path class="st12" d="M274.65,104.89c0,1.57-0.12,4.34-0.12,6.15c0,16.09,0,22.63,0,22.63"/>
		<path class="st12" d="M410.93,165.65c0,0,8.27-42.3-29.23-77.88c-34.18-32.42-87.68-28.46-103.83,5"/>
	</g>
</g>
</svg>
