<?xml version="1.0" encoding="utf-8"?>
<!-- Generator: Adobe Illustrator 26.0.1, SVG Export Plug-In . SVG Version: 6.00 Build 0)  -->
<svg version="1.1" id="Layer_1" xmlns="http://www.w3.org/2000/svg" xmlns:xlink="http://www.w3.org/1999/xlink" x="0px" y="0px"
	 viewBox="0 0 1791.86 745.31" style="enable-background:new 0 0 1791.86 745.31;" xml:space="preserve">
<style type="text/css">
	.st0{fill:none;stroke:#BE6C2F;stroke-width:7.1547;stroke-linejoin:round;stroke-miterlimit:10;}
	.st1{fill:none;stroke:#BE6C2F;stroke-width:7.1547;stroke-linecap:round;stroke-linejoin:round;stroke-miterlimit:10;}
	.st2{fill:none;stroke:#BE6C2F;stroke-width:7.7195;stroke-linejoin:round;stroke-miterlimit:10;}
	.st3{fill:#BE6C2F;}
	.st4{fill:none;stroke:#F3812F;stroke-width:8.2843;stroke-miterlimit:10;}
	.st5{fill:none;stroke:#F3812F;stroke-width:6.9664;stroke-miterlimit:10;}
	.st6{fill:none;stroke:#F3812F;stroke-width:7.1547;stroke-miterlimit:10;}
	.st7{fill:none;stroke:#F3812F;stroke-width:7.3429;stroke-miterlimit:10;}
	.st8{fill:#FFFFFF;}
	.st9{fill:none;stroke:#FFFFFF;stroke-width:3.2667;stroke-miterlimit:10;}
	.st10{fill:none;stroke:#FFFFFF;stroke-width:3.4171;stroke-linejoin:round;stroke-miterlimit:10;}
	.st11{fill:none;stroke:#FFFFFF;stroke-width:3.2085;stroke-linejoin:round;stroke-miterlimit:10;}
	.st12{fill:none;stroke:#FFFFFF;stroke-width:3.2008;stroke-linejoin:round;stroke-miterlimit:10;}
	.st13{fill:#F7941E;}
</style>
<rect y="0" width="1791.86" height="745.31"/>
<g>
	<g>
		<path class="st13" d="M713,295.23c-8.4-9.4-12.61-23.31-12.61-41.75v-96.51c0-18.61,4.16-32.62,12.47-42.02
			c8.31-9.4,20.6-14.1,36.87-14.1c32.89,0,49.34,18.43,49.34,55.3v28.47h-40.12v-34.16c0-4.7-0.68-8.22-2.03-10.57
			c-1.36-2.35-3.75-3.52-7.18-3.52c-6.15,0-9.22,4.7-9.22,14.1v108.98c0,9.58,3.07,14.37,9.22,14.37c3.07,0,5.37-1.13,6.91-3.39
			c1.53-2.26,2.3-5.83,2.3-10.71v-37.95h40.12v32.26c0,18.43-3.98,32.26-11.93,41.48c-7.95,9.22-20.42,13.83-37.41,13.83
			C733.65,309.33,721.41,304.63,713,295.23z"/>
		<path class="st13" d="M825.24,295.78c-7.86-9.04-11.79-22.14-11.79-39.31v-62.89c0-17.17,3.93-30.23,11.79-39.17
			c7.86-8.95,19.47-13.42,34.84-13.42c15.36,0,26.97,4.47,34.84,13.42c7.86,8.95,11.79,22.01,11.79,39.17v62.89
			c0,17.35-3.93,30.5-11.79,39.44s-19.48,13.42-34.84,13.42C844.71,309.33,833.1,304.82,825.24,295.78z M868.2,264.6v-79.16
			c0-8.49-2.71-12.74-8.13-12.74c-5.42,0-8.13,4.25-8.13,12.74v79.16c0,8.68,2.71,13.01,8.13,13.01
			C865.49,277.61,868.2,273.28,868.2,264.6z"/>
		<path class="st13" d="M922.96,305.81v-161.3h38.22v5.15l-0.81,8.4h0.54c2.53-5.6,6.1-9.85,10.71-12.74
			c4.61-2.89,9.98-4.34,16.13-4.34c6.32,0,11.79,1.49,16.4,4.47c4.61,2.98,7.82,7.28,9.62,12.88h0.27
			c2.53-5.42,6.05-9.67,10.57-12.74c4.52-3.07,9.76-4.61,15.72-4.61c19.88,0,29.82,14.19,29.82,42.56v122.26h-38.77V185.17
			c0-7.95-2.35-11.93-7.05-11.93c-2.53,0-4.57,1.18-6.1,3.52c-1.54,2.35-2.3,5.6-2.3,9.76v119.28h-38.77V184.63
			c0-7.59-2.35-11.39-7.05-11.39c-2.71,0-4.79,1.22-6.24,3.66c-1.45,2.44-2.17,5.74-2.17,9.9v119.01H922.96z"/>
		<path class="st13" d="M1093.48,305.81v-161.3h38.22v5.15l-0.81,8.4h0.54c2.53-5.6,6.1-9.85,10.71-12.74
			c4.61-2.89,9.98-4.34,16.13-4.34c6.32,0,11.79,1.49,16.4,4.47c4.61,2.98,7.82,7.28,9.62,12.88h0.27
			c2.53-5.42,6.05-9.67,10.57-12.74c4.52-3.07,9.76-4.61,15.72-4.61c19.88,0,29.82,14.19,29.82,42.56v122.26h-38.77V185.17
			c0-7.95-2.35-11.93-7.05-11.93c-2.53,0-4.57,1.18-6.1,3.52c-1.54,2.35-2.3,5.6-2.3,9.76v119.28h-38.77V184.63
			c0-7.59-2.35-11.39-7.05-11.39c-2.71,0-4.79,1.22-6.24,3.66c-1.45,2.44-2.17,5.74-2.17,9.9v119.01H1093.48z"/>
		<path class="st13" d="M1358.06,235.59h-51.78v29.01c0,9.4,2.53,14.1,7.59,14.1c2.71,0,4.65-0.95,5.83-2.85
			c1.17-1.9,1.85-5.01,2.03-9.35v-18.43h36.05v17.89c-0.18,13.74-4.16,24.4-11.93,31.99c-7.77,7.59-18.62,11.39-32.53,11.39
			c-15,0-26.34-4.65-34.02-13.96c-7.68-9.31-11.52-22.37-11.52-39.17v-62.62c0-16.81,3.93-29.77,11.79-38.9
			c7.86-9.12,19.2-13.69,34.02-13.69c14.28,0,25.25,4.16,32.94,12.47c7.68,8.31,11.52,20.24,11.52,35.78V235.59z M1308.18,174.46
			c-1.27,2.26-1.9,5.83-1.9,10.71v27.65h15.45v-27.65c0-4.88-0.59-8.45-1.76-10.71c-1.18-2.26-3.12-3.39-5.83-3.39
			C1311.43,171.07,1309.44,172.2,1308.18,174.46z"/>
		<path class="st13" d="M1448.06,142.07v37.14c-2.89-0.9-5.88-1.36-8.95-1.36c-6.87,0-12.06,2.26-15.59,6.78
			c-3.52,4.52-5.29,11.21-5.29,20.06v101.12h-38.77v-161.3h37.95v4.88l-1.08,9.76h0.54c1.99-5.78,5.02-10.26,9.08-13.42
			c4.07-3.16,8.45-4.74,13.15-4.74C1442.19,140.98,1445.17,141.35,1448.06,142.07z"/>
		<path class="st13" d="M1471.37,295.51c-7.59-9.04-11.39-22.23-11.39-39.58v-62.35c0-17.35,3.88-30.45,11.66-39.31
			c7.77-8.85,19.34-13.28,34.7-13.28c13.55,0,24.26,4.16,32.13,12.47c7.86,8.31,11.79,20.87,11.79,37.68v20.6h-36.6v-27.38
			c0-3.97-0.54-6.91-1.63-8.81c-1.08-1.9-2.98-2.85-5.69-2.85c-5.24,0-7.86,4.16-7.86,12.47v79.43c0,8.68,2.62,13.01,7.86,13.01
			c5.06,0,7.59-4.16,7.59-12.47v-29.01h36.6v21.96c0,17.53-3.98,30.41-11.93,38.63c-7.96,8.23-18.98,12.33-33.07,12.33
			C1490.35,309.06,1478.96,304.54,1471.37,295.51z"/>
		<path class="st13" d="M1659.78,235.59H1608v29.01c0,9.4,2.53,14.1,7.59,14.1c2.71,0,4.65-0.95,5.83-2.85
			c1.17-1.9,1.85-5.01,2.03-9.35v-18.43h36.05v17.89c-0.18,13.74-4.16,24.4-11.93,31.99c-7.77,7.59-18.62,11.39-32.53,11.39
			c-15,0-26.34-4.65-34.02-13.96c-7.68-9.31-11.52-22.37-11.52-39.17v-62.62c0-16.81,3.93-29.77,11.79-38.9
			c7.86-9.12,19.2-13.69,34.02-13.69c14.28,0,25.25,4.16,32.94,12.47c7.68,8.31,11.52,20.24,11.52,35.78V235.59z M1609.9,174.46
			c-1.27,2.26-1.9,5.83-1.9,10.71v27.65h15.45v-27.65c0-4.88-0.59-8.45-1.76-10.71c-1.18-2.26-3.12-3.39-5.83-3.39
			C1613.15,171.07,1611.16,172.2,1609.9,174.46z"/>
		<path class="st13" d="M909.43,603.84c-7.97-8.91-11.96-22.12-11.96-39.61v-91.57c0-17.66,3.94-30.95,11.83-39.87
			c7.88-8.91,19.55-13.37,34.98-13.37c31.21,0,46.81,17.49,46.81,52.47v27.01h-38.07v-32.41c0-4.46-0.64-7.8-1.93-10.03
			c-1.29-2.23-3.56-3.34-6.82-3.34c-5.83,0-8.75,4.46-8.75,13.37v103.4c0,9.09,2.91,13.63,8.75,13.63c2.91,0,5.1-1.07,6.56-3.21
			c1.45-2.14,2.19-5.53,2.19-10.16v-36.01h38.07v30.61c0,17.49-3.77,30.61-11.32,39.35c-7.55,8.74-19.38,13.12-35.5,13.12
			C929.02,617.22,917.4,612.76,909.43,603.84z"/>
		<path class="st13" d="M1021.06,604.36c-7.46-8.57-11.19-21-11.19-37.3v-59.67c0-16.29,3.73-28.68,11.19-37.17
			c7.46-8.49,18.48-12.73,33.05-12.73c14.57,0,25.59,4.24,33.05,12.73c7.46,8.49,11.19,20.88,11.19,37.17v59.67
			c0,16.46-3.73,28.94-11.19,37.43c-7.46,8.49-18.48,12.73-33.05,12.73C1039.53,617.22,1028.52,612.93,1021.06,604.36z
			 M1061.83,574.78v-75.11c0-8.06-2.57-12.09-7.72-12.09c-5.14,0-7.72,4.03-7.72,12.09v75.11c0,8.23,2.57,12.35,7.72,12.35
			C1059.26,587.12,1061.83,583.01,1061.83,574.78z"/>
		<path class="st13" d="M1184,458.52v35.24c-2.74-0.86-5.58-1.29-8.49-1.29c-6.52,0-11.45,2.15-14.79,6.43
			c-3.34,4.29-5.02,10.63-5.02,19.03v95.94h-36.78V460.83h36.01v4.63l-1.03,9.26h0.51c1.89-5.49,4.76-9.73,8.62-12.73
			c3.86-3,8.01-4.5,12.47-4.5C1178.43,457.49,1181.26,457.83,1184,458.52z"/>
		<path class="st13" d="M1261.17,582.49v31.12c-7.55,2.4-15.61,3.6-24.18,3.6c-11.83,0-20.45-3.3-25.85-9.9
			c-5.4-6.6-8.1-16.24-8.1-28.94v-87.45h-11.32v-30.09h11.32v-31.38h36.78v31.38h20.32v30.09h-20.32v78.71
			c0,4.98,0.81,8.58,2.44,10.8c1.63,2.23,4.24,3.34,7.85,3.34C1253.36,583.78,1257.05,583.35,1261.17,582.49z"/>
		<path class="st13" d="M1357.62,547.25h-49.13v27.52c0,8.92,2.4,13.37,7.2,13.37c2.57,0,4.41-0.9,5.53-2.7
			c1.11-1.8,1.76-4.76,1.93-8.87v-17.49h34.21v16.98c-0.17,13.03-3.95,23.15-11.32,30.35c-7.38,7.2-17.66,10.8-30.86,10.8
			c-14.24,0-24.99-4.41-32.28-13.25c-7.29-8.83-10.93-21.22-10.93-37.17v-59.42c0-15.95,3.73-28.25,11.19-36.91
			c7.46-8.66,18.22-12.99,32.28-12.99c13.54,0,23.96,3.95,31.25,11.83c7.29,7.89,10.93,19.21,10.93,33.95V547.25z M1310.29,489.25
			c-1.2,2.15-1.8,5.53-1.8,10.16v26.24h14.66v-26.24c0-4.63-0.56-8.01-1.67-10.16c-1.12-2.14-2.96-3.21-5.53-3.21
			C1313.38,486.04,1311.49,487.11,1310.29,489.25z"/>
		<polygon class="st13" points="1375.59,457.49 1400.97,528.64 1371.21,617.22 1400.97,617.22 1416.5,572.44 1431.37,617.22 
			1469.88,617.22 1440.78,529.09 1468.13,457.49 1438.38,457.49 1427.66,492 1414.09,457.49 		"/>
	</g>
	<g>
		<line class="st0" x1="424.23" y1="185.6" x2="471.7" y2="196.28"/>
		<line class="st0" x1="358.6" y1="170.88" x2="392.02" y2="178.36"/>
		<line class="st0" x1="325.87" y1="163.47" x2="336.81" y2="165.93"/>
		<polyline class="st0" points="495.69,201.68 579.5,220.53 613,543.56 467.4,640.87 135.65,551.8 179.25,221.83 263.81,195.68 
			252.8,147.03 302.5,158.21 		"/>
		<polyline class="st0" points="444.98,281.87 494.43,293.04 467.4,640.87 541.19,501.37 613,543.56 		"/>
		<line class="st0" x1="283.45" y1="245.37" x2="419.86" y2="276.19"/>
		<line class="st0" x1="179.25" y1="221.83" x2="256.33" y2="239.25"/>
		<polyline class="st0" points="579.5,220.53 523.59,249.52 539.46,265.96 494.43,293.04 		"/>
		<line class="st1" x1="539.46" y1="265.96" x2="539.31" y2="329.57"/>
		<path class="st0" d="M350.92,147.03c0,0,14.42-28.22,54.08-28.22s71.22,41.39,77.15,70.67c4.18,20.62,2.18,30.39,2.18,30.39"/>
		<line class="st0" x1="348.03" y1="187.73" x2="348.03" y2="158.96"/>
		<circle class="st2" cx="265.54" cy="268.8" r="11.2"/>
		<circle class="st2" cx="425.03" cy="305.49" r="10.79"/>
		<circle class="st3" cx="264.71" cy="195.65" r="5.74"/>
		<circle class="st3" cx="523.35" cy="249.52" r="5.67"/>
		<circle class="st3" cx="540.13" cy="266.35" r="5.34"/>
		<circle class="st3" cx="580.12" cy="220.15" r="5.72"/>
		<circle class="st3" cx="541.19" cy="501.37" r="6.11"/>
		<circle class="st3" cx="612.65" cy="543.35" r="6.62"/>
		<g>
			<g>
				<circle class="st4" cx="352.97" cy="325.73" r="7.5"/>
				<circle class="st5" cx="326.88" cy="326.5" r="6.02"/>
				<circle class="st5" cx="294.26" cy="325.48" r="4.71"/>
				<circle class="st5" cx="273.36" cy="334.16" r="7.85"/>
				<circle class="st5" cx="240.35" cy="335.28" r="6.54"/>
				<circle class="st5" cx="307.56" cy="353.93" r="8.27"/>
				<circle class="st5" cx="255.64" cy="356.82" r="5.38"/>
				<circle class="st5" cx="221.41" cy="352.01" r="4.81"/>
				<circle class="st5" cx="200.74" cy="361.43" r="4.9"/>
				<circle class="st5" cx="191.32" cy="384.6" r="7.4"/>
				<circle class="st5" cx="184.88" cy="408.74" r="6.06"/>
				<circle class="st5" cx="184.01" cy="434.21" r="5.77"/>
				<circle class="st5" cx="203.72" cy="454.4" r="5.77"/>
				<circle class="st5" cx="240.55" cy="425.46" r="7.98"/>
				<circle class="st5" cx="268.04" cy="438.64" r="6.44"/>
				<circle class="st5" cx="265.16" cy="409.7" r="8.17"/>
				<circle class="st5" cx="349.19" cy="408.25" r="8.03"/>
				<circle class="st5" cx="375.43" cy="394.12" r="8.17"/>
				<circle class="st5" cx="397.93" cy="403.45" r="4.81"/>
				<circle class="st5" cx="421.01" cy="401.04" r="7.88"/>
				<circle class="st5" cx="442.98" cy="410.23" r="5.05"/>
				<circle class="st5" cx="453.26" cy="436.23" r="7.64"/>
				<circle class="st5" cx="455.91" cy="465.84" r="6.78"/>
				<circle class="st6" cx="405.58" cy="441.33" r="8.12"/>
				<circle class="st6" cx="445.75" cy="494.59" r="8.27"/>
				<circle class="st6" cx="423.73" cy="523.66" r="6.15"/>
				<circle class="st6" cx="395.14" cy="539.23" r="6.15"/>
				<circle class="st7" cx="337.84" cy="569.42" r="7.95"/>
				<circle class="st7" cx="215.31" cy="407.49" r="7.79"/>
				<circle class="st7" cx="249.01" cy="483.53" r="7.84"/>
				<circle class="st7" cx="275.16" cy="502.43" r="5"/>
				<circle class="st7" cx="308.66" cy="480.55" r="4.71"/>
				<circle class="st7" cx="334.09" cy="444.64" r="4.47"/>
				<circle class="st7" cx="349.62" cy="458.35" r="4.42"/>
				<circle class="st7" cx="308.66" cy="457.77" r="4.33"/>
				<circle class="st7" cx="364.31" cy="430.72" r="4.17"/>
				<circle class="st7" cx="362.84" cy="371.21" r="5.93"/>
				<circle class="st7" cx="382.97" cy="354" r="4.65"/>
				<circle class="st7" cx="401.94" cy="350.47" r="4.2"/>
				<circle class="st7" cx="418.09" cy="369.03" r="5.06"/>
				<circle class="st7" cx="379.74" cy="331.6" r="5.22"/>
			</g>
			<g>
				<circle class="st8" cx="310.9" cy="331.34" r="4.45"/>
				<circle class="st8" cx="332.05" cy="344.77" r="5.22"/>
				<circle class="st8" cx="327.82" cy="362.65" r="5.22"/>
				<circle class="st8" cx="337.07" cy="383.48" r="5.22"/>
				<circle class="st8" cx="394.69" cy="371.54" r="5.22"/>
				<circle class="st8" cx="403.48" cy="462.65" r="5.22"/>
				<circle class="st8" cx="432.14" cy="436.6" r="6.25"/>
				<circle class="st8" cx="386.88" cy="477.78" r="5.22"/>
				<circle class="st8" cx="375.85" cy="492.57" r="5.22"/>
				<circle class="st8" cx="431.13" cy="421.79" r="5.22"/>
				<circle class="st8" cx="338.74" cy="502.51" r="5.64"/>
				<circle class="st8" cx="334.77" cy="478.54" r="5.64"/>
				<circle class="st8" cx="303.84" cy="440.33" r="5.64"/>
				<circle class="st8" cx="252.69" cy="446.67" r="5.64"/>
				<circle class="st8" cx="239.97" cy="466.54" r="4.87"/>
				<circle class="st8" cx="284.82" cy="438.54" r="3.41"/>
				<circle class="st8" cx="230.8" cy="444.3" r="4.87"/>
				<circle class="st8" cx="297.53" cy="502.03" r="5.64"/>
				<circle class="st8" cx="308.1" cy="514.81" r="5.64"/>
				<circle class="st8" cx="357.71" cy="537.98" r="5.64"/>
				<circle class="st8" cx="401.65" cy="520.04" r="5.64"/>
				<circle class="st8" cx="433.68" cy="511.74" r="3.8"/>
				<circle class="st8" cx="274.53" cy="377.5" r="5.82"/>
				<circle class="st8" cx="255.67" cy="377.5" r="5.82"/>
				<circle class="st8" cx="222.74" cy="376.94" r="5.82"/>
			</g>
			<g>
				<path class="st9" d="M236.75,338.89v36.9l12.3,13.74h46.94l13.01,12.6c0,0,20.32-18.07,21.92-19.55
					c1.6-1.47,3.78-0.58,3.78-0.58"/>
				<polyline class="st9" points="249.04,389.53 216.93,389.53 210.84,385.31 198.79,385.31 				"/>
				<polyline class="st9" points="216.93,389.53 216.93,380.89 202.6,364.99 				"/>
				<line class="st9" x1="274.53" y1="375.18" x2="274.53" y2="341.77"/>
				<line class="st9" x1="221.85" y1="355.47" x2="221.85" y2="374.27"/>
				<line class="st9" x1="255.67" y1="360.89" x2="255.67" y2="376.11"/>
				<polyline class="st9" points="326.28,363.5 314.67,374.99 286.36,374.99 286.36,353.69 308.59,331.2 				"/>
				<line class="st9" x1="331.69" y1="329.9" x2="331.69" y2="343.55"/>
				<polyline class="st9" points="352.52,332.14 352.52,342.72 334.38,359.45 				"/>
				<polyline class="st9" points="376.75,334.9 337.07,372.71 337.07,383.48 				"/>
				<polyline class="st9" points="384.5,358.16 384.5,375.47 393.73,385.21 407.51,385.21 416.49,394.63 				"/>
				<line class="st9" x1="396.85" y1="370.88" x2="413.7" y2="370.88"/>
				<polyline class="st9" points="188.44,411.93 202.69,426.47 212.9,426.47 229.73,443.8 				"/>
				<polyline class="st9" points="189.08,434.92 204.7,434.92 226.49,456.58 251.79,456.58 266.17,470.7 296.02,470.7 
					304.58,479.54 				"/>
				<line class="st9" x1="239.97" y1="432.53" x2="239.97" y2="466.85"/>
				<polyline class="st9" points="268.17,443.25 268.17,458.47 284.36,458.47 301.47,442.51 				"/>
				<polyline class="st9" points="271.86,414.44 286.41,428.6 322.01,428.6 341.82,410.69 				"/>
				<line class="st9" x1="349.48" y1="416.07" x2="349.48" y2="454.18"/>
				<polyline class="st9" points="364.03,434.85 364.03,479.37 341.46,500.81 				"/>
				<polyline class="st9" points="349.14,462.77 349.14,477.14 309.91,514.4 				"/>
				<line class="st9" x1="308.57" y1="484.54" x2="308.57" y2="513.72"/>
				<path class="st9" d="M332.33,564.07l-7.79-8.65v-91.66c0,0-5.27-5.27-6.22-6.22s-7.44-0.31-7.44-0.31"/>
				<line class="st9" x1="335.25" y1="449.02" x2="335.25" y2="477.29"/>
				<line class="st9" x1="376.16" y1="401.91" x2="376.16" y2="492.33"/>
				<line class="st9" x1="378.08" y1="492.57" x2="438.41" y2="492.57"/>
				<path class="st9" d="M387.98,476.28h47.64c0,0,8.85-8.56,10.34-9.71c1.49-1.15,3.7-0.62,3.7-0.62"/>
				<polyline class="st9" points="428.46,421.04 403.03,421.04 387.79,435.61 387.79,475.46 				"/>
				<line class="st9" x1="395.14" y1="406.81" x2="376.16" y2="425.05"/>
				<polyline class="st9" points="359.51,374.7 317.27,415.34 298.1,415.34 288.81,406.49 271.86,406.49 				"/>
				<line class="st9" x1="258.36" y1="406.62" x2="223.05" y2="406.62"/>
				<polyline class="st9" points="256.51,483.37 291.44,483.37 296.49,488.42 296.49,502.03 279.04,502.03 				"/>
				<line class="st9" x1="308.57" y1="461.71" x2="308.57" y2="476.23"/>
				<polyline class="st9" points="336.63,562.31 336.63,524.17 355.85,504.94 427.58,504.94 434.34,511.7 				"/>
				<path class="st9" d="M342.55,563.57l5.38-4.71v-30.79c0-0.73,0.59-1.32,1.32-1.32h16.66l8.65-7.26h25.33"/>
				<line class="st9" x1="404.12" y1="520.65" x2="418.57" y2="520.65"/>
				<line class="st9" x1="359.91" y1="537.66" x2="389.81" y2="537.66"/>
				<line class="st9" x1="273.19" y1="438.54" x2="284.82" y2="438.54"/>
				<polyline class="st9" points="404.61,449.12 404.61,462.48 430.62,462.48 449.75,443.35 				"/>
				<line class="st9" x1="412.88" y1="442.27" x2="427.78" y2="442.27"/>
				<polyline class="st9" points="439.63,413.41 431.13,421.04 431.13,435.4 				"/>
				<path class="st9" d="M329.35,343.55c0,0-2.31,0.71-5.42,3.75c-3.11,3.04-6.47,5.93-9.23,6.35"/>
				<line class="st9" x1="323.61" y1="330.8" x2="311.72" y2="330.8"/>
				<circle class="st9" cx="337.6" cy="569.29" r="7.4"/>
				<circle class="st9" cx="394.92" cy="538.66" r="5.29"/>
				<circle class="st9" cx="423.86" cy="523.63" r="5.42"/>
				<circle class="st9" cx="445.56" cy="494.43" r="7.4"/>
				<circle class="st9" cx="455.94" cy="465.82" r="6.19"/>
				<circle class="st9" cx="453.25" cy="436.17" r="7.18"/>
				<circle class="st9" cx="442.9" cy="410.31" r="4.74"/>
				<circle class="st9" cx="420.78" cy="400.95" r="7.6"/>
				<circle class="st9" cx="398.16" cy="403.29" r="4.71"/>
				<circle class="st9" cx="375.15" cy="394.63" r="7.27"/>
				<circle class="st9" cx="349.09" cy="408.22" r="7.11"/>
				<circle class="st9" cx="364.31" cy="430.53" r="4.52"/>
				<circle class="st9" cx="333.87" cy="445.08" r="4.33"/>
				<circle class="st9" cx="405.56" cy="441.36" r="7.32"/>
				<circle class="st9" cx="349.48" cy="458.15" r="4.01"/>
				<circle class="st9" cx="308.33" cy="457.86" r="4.26"/>
				<circle class="st9" cx="308.57" cy="480.62" r="4.51"/>
				<circle class="st9" cx="274.87" cy="502.38" r="4.78"/>
				<circle class="st9" cx="249.07" cy="483.37" r="7.44"/>
				<circle class="st9" cx="203.6" cy="454.26" r="4.64"/>
				<circle class="st9" cx="183.84" cy="434.04" r="4.65"/>
				<circle class="st9" cx="240.55" cy="425.51" r="7.4"/>
				<circle class="st9" cx="267.95" cy="438.54" r="5.76"/>
				<circle class="st9" cx="265.16" cy="409.84" r="7.52"/>
				<circle class="st9" cx="215.29" cy="407.49" r="7.63"/>
				<circle class="st9" cx="191.51" cy="384.73" r="6.89"/>
				<circle class="st9" cx="184.62" cy="408.74" r="5.19"/>
				<circle class="st9" cx="362.81" cy="371.05" r="5.16"/>
				<circle class="st9" cx="383.29" cy="354.13" r="4.39"/>
				<circle class="st9" cx="401.94" cy="350.47" r="4.2"/>
				<circle class="st9" cx="379.89" cy="331.37" r="4.39"/>
				<circle class="st9" cx="353.13" cy="325.8" r="7.11"/>
				<circle class="st9" cx="327.07" cy="326.63" r="5.8"/>
				<circle class="st9" cx="294.51" cy="325.38" r="4.07"/>
				<circle class="st9" cx="273.07" cy="334.38" r="7.39"/>
				<circle class="st9" cx="240.55" cy="335.06" r="6.25"/>
				<circle class="st9" cx="221.6" cy="351.72" r="4.23"/>
				<circle class="st9" cx="200.33" cy="361.69" r="5"/>
				<circle class="st9" cx="255.98" cy="356.58" r="4.31"/>
				<circle class="st9" cx="307.32" cy="354.03" r="7.74"/>
				<circle class="st9" cx="418.15" cy="369.29" r="4.69"/>
			</g>
		</g>
		<ellipse class="st10" cx="264.97" cy="268.01" rx="11.15" ry="11.57"/>
		<ellipse class="st11" cx="424.56" cy="305.02" rx="10.62" ry="11.42"/>
		<circle class="st8" cx="523.21" cy="249.33" r="3.75"/>
		<circle class="st8" cx="580.36" cy="220.49" r="3.27"/>
		<circle class="st8" cx="264.82" cy="195.87" r="3.77"/>
		<circle class="st8" cx="613.51" cy="543.65" r="2.98"/>
		<circle class="st8" cx="540.27" cy="500.6" r="3.7"/>
		<circle class="st8" cx="540.71" cy="265.29" r="3.72"/>
		<path class="st0" d="M265.16,266.44c0,0-1.98-115.96,89.65-112.01c60.14,2.6,74.56,61.44,78.6,80.76s-5.66,46.47-6.92,59.13
			c-0.67,6.73-1.46,11.04-1.46,11.04"/>
		<g>
			<polyline class="st12" points="495.66,201.78 580.7,221.06 612.72,543.91 466.98,641.47 135.58,552.33 179.88,221.83 
				263.52,195.2 253.33,146.84 302.55,158 			"/>
			<line class="st12" x1="424.23" y1="185.6" x2="471.65" y2="196.34"/>
			<line class="st12" x1="358.64" y1="170.72" x2="392.02" y2="178.2"/>
			<line class="st12" x1="325.87" y1="163.29" x2="336.81" y2="165.77"/>
			<polyline class="st12" points="444.98,281.8 494.84,293.07 539.07,265.29 524.07,249.14 580.7,221.06 			"/>
			<line class="st12" x1="283.42" y1="245.25" x2="419.86" y2="276.11"/>
			<line class="st12" x1="179.88" y1="221.83" x2="256.33" y2="239.25"/>
			<polyline class="st12" points="494.84,293.07 466.98,641.47 540.99,501.27 612.72,543.91 			"/>
			<line class="st12" x1="539.07" y1="265.29" x2="539.07" y2="331.53"/>
			<path class="st12" d="M264.89,266.45c0,0,0.84-115.38,89.87-112.3c44.35,1.53,84.37,47.59,78.93,98.07
				c-2.69,25-7.3,37.23-8.8,52.81"/>
			<path class="st12" d="M347.7,158.96c0,1.57-0.12,4.34-0.12,6.15c0,16.09,0,22.63,0,22.63"/>
			<path class="st12" d="M483.98,219.72c0,0,8.27-42.3-29.23-77.88c-34.18-32.42-87.68-28.46-103.83,5"/>
		</g>
	</g>
</g>
</svg>
