<svg version="1.1" id="Layer_1" xmlns="http://www.w3.org/2000/svg" xmlns:xlink="http://www.w3.org/1999/xlink" x="0px" y="0px"
	 width="100%" viewBox="0 0 450 85" enable-background="new 0 0 450 85" xml:space="preserve">
<path fill="#000000" opacity="1.000000" stroke="none" 
	d="
M303.000000,86.000000 
	C202.000015,86.000000 101.500023,86.000000 1.000027,86.000000 
	C1.000018,57.666683 1.000018,29.333364 1.000009,1.000035 
	C150.999969,1.000023 300.999939,1.000023 450.999939,1.000012 
	C450.999939,29.333298 450.999939,57.666595 450.999969,85.999947 
	C401.833344,86.000000 352.666656,86.000000 303.000000,86.000000 
M273.206940,5.651976 
	C276.342529,13.439760 279.376831,21.270231 282.636597,29.005672 
	C288.008759,41.753906 293.526733,54.440689 299.006073,67.867111 
	C299.453430,68.737595 299.900787,69.608086 300.714661,71.191742 
	C300.714661,48.555714 300.714661,26.925440 300.714661,5.177285 
	C291.519501,5.177285 282.602325,5.177285 273.206940,5.651976 
M252.327347,4.997263 
	C243.602859,4.997263 234.878372,4.997263 226.194855,4.997263 
	C226.194855,27.221470 226.194855,48.742207 226.194855,70.262947 
	C226.382080,70.317650 226.569305,70.372353 226.756531,70.427063 
	C227.175003,69.337692 227.593491,68.248329 228.666397,66.764252 
	C229.707199,64.296501 230.776016,61.840130 231.784058,59.359070 
	C236.539383,47.654980 241.320648,35.961140 246.005524,24.228849 
	C248.527054,17.914194 250.873184,11.529499 252.327347,4.997263 
M156.976410,31.242008 
	C153.498245,29.611967 146.226135,33.971519 146.209015,37.809856 
	C146.154129,50.116314 146.188614,62.423168 146.188614,74.625847 
	C147.920807,75.391624 149.882950,75.723091 151.054474,76.865417 
	C157.804428,83.447121 164.403519,82.244408 171.104568,76.915680 
	C172.318863,75.950066 173.603073,75.072350 174.727478,74.247604 
	C174.727478,63.128345 174.727478,52.141884 174.727463,41.155418 
	C174.727448,34.056313 174.271606,33.452972 166.788727,30.319637 
	C166.192276,30.913736 165.077194,31.506807 165.076019,32.102089 
	C165.052872,43.800354 165.159164,55.498878 164.947983,67.842003 
	C160.283508,71.882263 157.897430,71.341568 156.987762,65.076569 
	C156.935577,54.050167 156.883392,43.023766 156.976410,31.242008 
M183.997528,30.924847 
	C184.059036,43.304409 184.120560,55.683968 184.296951,68.757263 
	C186.614014,67.557877 188.887390,66.262634 191.258682,65.182281 
	C194.555817,63.680096 195.203613,61.217308 195.082886,57.753639 
	C194.793015,49.436600 194.471893,41.059311 195.164291,32.790146 
	C195.655746,26.920738 193.184280,23.732002 188.644730,21.138947 
	C179.872589,16.128164 171.164322,11.004327 162.342606,6.083261 
	C161.383255,5.548092 159.601212,5.582263 158.626953,6.121851 
	C150.519852,10.611872 142.363953,15.048991 134.556458,20.025566 
	C131.823120,21.767828 127.098953,21.714790 127.149200,26.874832 
	C127.268852,39.161674 127.187775,51.450474 127.187775,63.507385 
	C130.497162,65.316383 133.564545,66.993095 136.701553,68.707870 
	C136.701553,56.636433 136.661789,45.152748 136.757874,33.670204 
	C136.768463,32.405205 137.171234,30.528858 138.045700,29.982840 
	C145.121338,25.564800 152.316284,21.331190 159.589371,17.245222 
	C160.402878,16.788200 162.099060,17.305519 163.099716,17.874411 
	C170.071365,21.837963 176.967499,25.934366 183.997528,30.924847 
M266.539673,64.939415 
	C267.963013,67.282280 268.888428,70.834831 270.930176,71.675186 
	C273.761261,72.840416 277.431000,71.968002 281.548035,71.968002 
	C275.595764,57.820175 269.890930,44.260578 264.186127,30.700985 
	C263.681915,30.710297 263.177704,30.719606 262.673492,30.728918 
	C258.869781,39.914227 255.066071,49.099537 250.959732,59.015636 
	C255.338928,59.015636 258.157532,59.093872 260.970032,58.996162 
	C264.623352,58.869244 266.075378,60.799110 266.539673,64.939415 
z"/>
<path fill="#FEF4EF" opacity="1.000000" stroke="none" 
	d="
M183.887848,29.988190 
	C176.967499,25.934366 170.071365,21.837963 163.099716,17.874411 
	C162.099060,17.305519 160.402878,16.788200 159.589371,17.245222 
	C152.316284,21.331190 145.121338,25.564800 138.045700,29.982840 
	C137.171234,30.528858 136.768463,32.405205 136.757874,33.670204 
	C136.661789,45.152748 136.701553,56.636433 136.701553,68.707870 
	C133.564545,66.993095 130.497162,65.316383 127.187775,63.507385 
	C127.187775,51.450474 127.268852,39.161674 127.149200,26.874832 
	C127.098953,21.714790 131.823120,21.767828 134.556458,20.025566 
	C142.363953,15.048991 150.519852,10.611872 158.626953,6.121851 
	C159.601212,5.582263 161.383255,5.548092 162.342606,6.083261 
	C171.164322,11.004327 179.872589,16.128164 188.644730,21.138947 
	C193.184280,23.732002 195.655746,26.920738 195.164291,32.790146 
	C194.471893,41.059311 194.793015,49.436600 195.082886,57.753639 
	C195.203613,61.217308 194.555817,63.680096 191.258682,65.182281 
	C188.887390,66.262634 186.614014,67.557877 184.515213,68.091293 
	C184.813675,55.804398 184.917130,44.183487 184.926498,32.562492 
	C184.927185,31.704670 184.249939,30.846300 183.887848,29.988190 
z"/>
<path fill="#FEF2EE" opacity="1.000000" stroke="none" 
	d="
M156.831177,66.002693 
	C157.897430,71.341568 160.283508,71.882263 165.329956,67.158401 
	C165.792191,56.334641 165.821259,46.193546 166.003952,36.055225 
	C166.033768,34.399731 166.741577,32.756451 167.136002,31.107523 
	C174.271606,33.452972 174.727448,34.056313 174.727463,41.155418 
	C174.727478,52.141884 174.727478,63.128345 174.727478,74.247604 
	C173.603073,75.072350 172.318863,75.950066 171.104568,76.915680 
	C164.403519,82.244408 157.804428,83.447121 151.054474,76.865417 
	C149.882950,75.723091 147.920807,75.391624 146.188614,74.625847 
	C146.188614,62.423168 146.154129,50.116314 146.209015,37.809856 
	C146.226135,33.971519 153.498245,29.611967 156.739349,31.618755 
	C156.502304,31.995504 156.173416,31.992607 155.927811,31.727608 
	C155.477402,43.167213 155.272598,54.871819 155.067810,66.576424 
	C155.436310,66.385971 155.804810,66.195511 156.337769,66.004288 
	C156.502243,66.003525 156.831177,66.002693 156.831177,66.002693 
z"/>
<path fill="#FFFAF9" opacity="1.000000" stroke="none" 
	d="
M253.298431,5.176404 
	C250.873184,11.529499 248.527054,17.914194 246.005524,24.228849 
	C241.320648,35.961140 236.539383,47.654980 231.784058,59.359070 
	C230.776016,61.840130 229.707199,64.296501 227.969009,66.721024 
	C227.271622,46.496662 227.271622,26.315527 227.271622,5.849172 
	C229.623917,5.849172 231.596619,5.899763 233.565979,5.839928 
	C240.144104,5.640062 246.721054,5.400661 253.298431,5.176404 
z"/>
<path fill="#FFFAF9" opacity="1.000000" stroke="none" 
	d="
M298.983246,67.153366 
	C293.526733,54.440689 288.008759,41.753906 282.636597,29.005672 
	C279.376831,21.270231 276.342529,13.439760 273.799286,5.680564 
	C282.793396,5.709152 291.195190,5.709152 299.944031,5.709152 
	C299.944031,26.147821 299.951385,45.870609 299.903809,65.593254 
	C299.902527,66.114029 299.303497,66.633362 298.983246,67.153366 
z"/>
<path fill="#FEF4F3" opacity="1.000000" stroke="none" 
	d="
M266.338501,64.560486 
	C266.075378,60.799110 264.623352,58.869244 260.970032,58.996162 
	C258.157532,59.093872 255.338928,59.015636 250.959732,59.015636 
	C255.066071,49.099537 258.869781,39.914227 262.673492,30.728918 
	C263.177704,30.719606 263.681915,30.710297 264.186127,30.700985 
	C269.890930,44.260578 275.595764,57.820175 281.548035,71.968002 
	C277.431000,71.968002 273.761261,72.840416 270.930176,71.675186 
	C268.888428,70.834831 267.963013,67.282280 266.338501,64.560486 
z"/>
<path fill="#EF3F33" opacity="1.000000" stroke="none" 
	d="
M252.812897,5.086834 
	C246.721054,5.400661 240.144104,5.640062 233.565979,5.839928 
	C231.596619,5.899763 229.623917,5.849172 227.271622,5.849172 
	C227.271622,26.315527 227.271622,46.496662 227.641800,66.918381 
	C227.593491,68.248329 227.175003,69.337692 226.756531,70.427063 
	C226.569305,70.372353 226.382080,70.317650 226.194855,70.262947 
	C226.194855,48.742207 226.194855,27.221470 226.194855,4.997263 
	C234.878372,4.997263 243.602859,4.997263 252.812897,5.086834 
z"/>
<path fill="#EF4033" opacity="1.000000" stroke="none" 
	d="
M298.994659,67.510239 
	C299.303497,66.633362 299.902527,66.114029 299.903809,65.593254 
	C299.951385,45.870609 299.944031,26.147821 299.944031,5.709152 
	C291.195190,5.709152 282.793396,5.709152 274.038391,5.443218 
	C282.602325,5.177285 291.519501,5.177285 300.714661,5.177285 
	C300.714661,26.925440 300.714661,48.555714 300.714661,71.191742 
	C299.900787,69.608086 299.453430,68.737595 298.994659,67.510239 
z"/>
<path fill="#F8B596" opacity="1.000000" stroke="none" 
	d="
M166.962372,30.713581 
	C166.741577,32.756451 166.033768,34.399731 166.003952,36.055225 
	C165.821259,46.193546 165.792191,56.334641 165.475494,66.836075 
	C165.159164,55.498878 165.052872,43.800354 165.076019,32.102089 
	C165.077194,31.506807 166.192276,30.913736 166.962372,30.713581 
z"/>
<path fill="#F9BB9F" opacity="1.000000" stroke="none" 
	d="
M183.942688,30.456516 
	C184.249939,30.846300 184.927185,31.704670 184.926498,32.562492 
	C184.917130,44.183487 184.813675,55.804398 184.457764,67.744431 
	C184.120560,55.683968 184.059036,43.304409 183.942688,30.456516 
z"/>
<path fill="#FDEFE9" opacity="1.000000" stroke="none" 
	d="
M156.173416,31.992607 
	C156.173416,31.992607 156.502304,31.995504 156.666748,31.996433 
	C156.883392,43.023766 156.935577,54.050167 156.909470,65.539627 
	C156.831177,66.002693 156.502243,66.003525 156.269531,65.539566 
	C156.082352,54.047947 156.127884,43.020275 156.173416,31.992607 
z"/>
<path fill="#F77940" opacity="1.000000" stroke="none" 
	d="
M155.927811,31.727608 
	C156.127884,43.020275 156.082352,54.047947 156.105072,65.540337 
	C155.804810,66.195511 155.436310,66.385971 155.067810,66.576424 
	C155.272598,54.871819 155.477402,43.167213 155.927811,31.727608 
z"/>
</svg>